<svg xmlns="http://www.w3.org/2000/svg" xmlns:xlink="http://www.w3.org/1999/xlink" viewBox="0 0 79.3 44.72"><defs><style>.cls-1{fill:#999;stroke-width:0.68px;}.cls-1,.cls-2{stroke:#000;}.cls-2{fill:#e6e6e6;stroke-width:0.89px;isolation:isolate;opacity:0.74;}.cls-3{opacity:0.24;}.cls-4{fill:url(#radial-gradient);}</style><radialGradient id="radial-gradient" cx="-242.9" cy="3725.55" r="11.07" gradientTransform="matrix(0.74, -0.29, 0.14, 0.36, -306.4, -1389.04)" gradientUnits="userSpaceOnUse"><stop offset="0" stop-color="#c8b71c"/><stop offset="1" stop-color="#615757"/></radialGradient></defs><g id="Layer_2" data-name="Layer 2"><g id="Layer_1-2" data-name="Layer 1"><path class="cls-1" d="M6.25,32.78c.9-4.4,4.9-15.8,25.6-20.8,11.6-2.8,34.3-7.9,33.8-5.1a79.93,79.93,0,0,1-9.2,9.2c-3.6,2.8-11,7.8-11,7.8l-14.7,6.5-17.1,8.2C9,40.48,6.55,38.18,6.25,32.78Z"/><path class="cls-2" d="M.45,35.78C1.55,30,7,14.88,34.25,8.28c15.3-3.7,45.3-10.4,44.6-6.8a100.42,100.42,0,0,1-12.2,12.2c-4.7,3.6-14.4,10.4-14.4,10.4l-19.4,8.6-22.5,10.8c-6.3,2.4-9.5-.7-9.9-7.7Z"/><g class="cls-3"><path class="cls-4" d="M45.05,15.28c1,2.5-2.4,6.1-7.5,8s-10,1.6-11-.9,2.4-6.1,7.5-8S44.15,12.88,45.05,15.28Z"/></g></g></g></svg>