<svg xmlns="http://www.w3.org/2000/svg" viewBox="0 0 72.21 39.2"><defs><style>.cls-1,.cls-2,.cls-3{fill:#0f3a8b;stroke:#000;}.cls-1{stroke-width:0.89px;}.cls-2,.cls-3{stroke-miterlimit:3.18;}.cls-2{stroke-width:1.11px;}.cls-3{stroke-width:0.79px;}</style></defs><g id="Layer_2" data-name="Layer 2"><g id="Layer_1-2" data-name="Layer 1"><path class="cls-1" d="M28.05,38.76H1.45c-.8-1.3-2-3.6.5-6.8,10-12.5,20.1-17.9,29.7-25.2Z"/><path class="cls-2" d="M71.35,15.76c-1.2,7.1-7.4,11.1-16.9,11.1S36.75,23,37,15.76c.3-7.7,12.2-15.4,18.4-15.2,12.5.1,17.7,5.4,16,15.2Z"/><path class="cls-3" d="M66.75,3.86c10.5,12.8-12.1,15.3-25.1,19.4"/><path class="cls-3" d="M58.25,26.36c.7,1.9.8,5.3-8.7,8.3,0,0-16,.6-23-1.8-1.1-.3-1.1-2,2.9-4.4,4.2-2.5,6.8-2.7,11.6-2.2l17.2.1Z"/><path class="cls-3" d="M26.35,32.66c9.3-3.6,21-4.6,32.6-5.7-1.9,4.5-3.5,7.8-13.2,7.1Z"/></g></g></svg>