<svg xmlns="http://www.w3.org/2000/svg" xmlns:xlink="http://www.w3.org/1999/xlink" viewBox="0 0 103.6 103.6"><defs><style>.cls-1,.cls-2,.cls-3,.cls-4,.cls-5{stroke:#000;}.cls-1{stroke-miterlimit:3.99;fill:url(#radial-gradient);}.cls-2,.cls-3{fill:#b3b3b3;}.cls-2{stroke-miterlimit:2.71;stroke-width:0.68px;}.cls-3{stroke-miterlimit:2.22;}.cls-4{fill:#e9ddaf;stroke-miterlimit:10;}.cls-5{stroke-miterlimit:3.57;stroke-width:1.52px;}</style><radialGradient id="radial-gradient" cx="-663.81" cy="774.46" r="58.05" gradientTransform="matrix(2.01, -0.01, 0.01, 1.82, 1378.1, -1363.75)" gradientUnits="userSpaceOnUse"><stop offset="0" stop-color="#181818"/><stop offset="1" stop-color="#4f4949"/></radialGradient></defs><g id="Layer_2" data-name="Layer 2"><g id="Layer_1-2" data-name="Layer 1"><path class="cls-1" d="M103.1,51.8A51.3,51.3,0,0,1,.5,51.8h0a51.3,51.3,0,0,1,102.6,0Z"/><path class="cls-2" d="M86.7,51.1a34.9,34.9,0,0,1-69.8,0h0a34.9,34.9,0,0,1,69.8,0Z"/><path class="cls-3" d="M80.4,51.8a28.6,28.6,0,0,1-57.2,0h0a28.6,28.6,0,0,1,57.2,0Z"/><path class="cls-4" d="M57.8,50.8a6.5,6.5,0,0,1-13,0h0a6.5,6.5,0,0,1,13,0Z"/><path class="cls-5" d="M60,69.6c0,2.6-3.5,4.8-7.7,4.8s-7.7-2.1-7.7-4.8h0c0-2.6,3.5-4.8,7.7-4.8S60,67,60,69.6Z"/><path class="cls-5" d="M60,32c0,2.6-3.5,4.8-7.7,4.8s-7.7-2.1-7.7-4.8h0c0-2.6,3.5-4.8,7.7-4.8S60,29.4,60,32Z"/><path class="cls-5" d="M69,58.2c-2.6,0-4.8-3.4-4.9-7.6s2-7.8,4.7-7.8h0c2.6,0,4.8,3.4,4.9,7.6S71.6,58.2,69,58.2Z"/><path class="cls-5" d="M33.9,58.9c-2.6,0-4.8-3.4-4.9-7.6s2-7.8,4.7-7.8h0c2.6,0,4.8,3.4,4.9,7.6S36.6,58.8,33.9,58.9Z"/></g></g></svg>