<svg xmlns="http://www.w3.org/2000/svg" viewBox="0 0 390.56 159.46"><defs><style>.cls-1{fill:none;stroke:#666;stroke-linecap:round;stroke-linejoin:round;stroke-width:5px;isolation:isolate;opacity:0.65;}</style></defs><g id="Layer_2" data-name="Layer 2"><g id="Layer_1-2" data-name="Layer 1"><path class="cls-1" d="M67.55,2.52c-30.3-.8-63.5,25.3-65,63.8-1.6,40.7,32.6,62.1,62.5,65,106.9,10.3,203.6,17.2,306.2,25.6,5.3.4,14.1-2.3,16.2-8.1s-1.5-14-7.7-16c-21.8-7-43.4-10.7-61-23.4-4.6-3.3-9.7-7.8-10.8-13.2s2.8-10.5,7.2-13.2c18.9-11.5,32.1-17.5,51.1-25.5,9.7-4.1,18.6-13.8,18.1-23.8s-10.6-21.8-20.6-21.9c-97.5-.5-185.4-6.4-296.2-9.3Z"/></g></g></svg>