<svg xmlns="http://www.w3.org/2000/svg" viewBox="0 0 157.6 179.1"><defs><style>.cls-1{fill:navy;}.cls-1,.cls-2,.cls-3,.cls-4,.cls-5{stroke:#000;stroke-linecap:round;stroke-linejoin:round;stroke-width:2px;}.cls-2{fill:#d3bc5f;}.cls-3{fill:gray;}.cls-4{fill:#1a1a1a;}.cls-5{fill:#333;}</style></defs><g id="Layer_2" data-name="Layer 2"><g id="Layer_1-2" data-name="Layer 1"><path class="cls-1" d="M146.6,97.1,117.8,86.6,87.7,166.3l30.1,11.8Z"/><path class="cls-2" d="M38.9,18.6,90.2,48l-5.9,5.6-7.8-2L64.4,61.1,51.7,62.7l-9.1-9.5,1-5.2L32.5,52.2,25.6,38.52l13.3-19.9Z"/><path class="cls-3" d="M47.5,3.8,32.7,26,56.5,36.2A14.64,14.64,0,0,0,67.1,29c3.1-5.1.7-12.7.7-12.7L47.5,3.8Z"/><path class="cls-4" d="M146.6,96.4l-29.1-9.8,6.2-9.1,2.6-9.1L57,36.1s7.2-2.3,10.1-7.5c2.4-4.2.3-11.8.3-11.8l67.3,29.4,1.3-2.9s4.5-1,11.1,1a25.94,25.94,0,0,1,9.5,5.9L145.5,85.52l1.1,10.9Z"/><path class="cls-4" d="M40.1,1A13.66,13.66,0,1,1,40,1Z"/><path class="cls-5" d="M29.4,40.2s-12.2,2.9-17.6,5.9C7.8,48.3,1,54.6,1,54.6l4.9,5.9s8-5.6,12.4-7.5c5.1-2.2,16-4.6,16-4.6Z"/></g></g></svg>