<svg xmlns="http://www.w3.org/2000/svg" viewBox="0 0 196.51 204.58"><defs><style>.cls-1{fill:#4d4d4d;}.cls-1,.cls-2,.cls-3{stroke:#000;stroke-linecap:round;stroke-linejoin:round;stroke-width:2px;}.cls-3{fill:#b3b3b3;}</style></defs><g id="Layer_2" data-name="Layer 2"><g id="Layer_1-2" data-name="Layer 1"><path class="cls-1" d="M67.5,194.48l-21.6-6.2L94.9,20l23.5,2Z"/><path class="cls-2" d="M195,5.68c1.4,2-.4,5.1-1.6,7.2-2.6,4.4-14.6,4.9-21.9,7.2-7.8,2.4-15.4,5.9-23.5,6.9-5.8.7-11.8-.1-17.6-.7-9.5-.9-18.9-3.2-28.4-4.2-12-1.3-24.2-2-36.3-2.3a285.85,285.85,0,0,0-30.7.3c-10.2.8-19.9,4.5-30.4,4.6-1.5,0-3.5-1.1-3.6-2.6-.2-4.4,6.2-6.5,10.1-8.5,5.4-2.7,11.7-3.1,17.6-3.9,13.3-1.8,26.8-2,40.2-2.3,11.8-.2,23.5,1.1,35.3.7,12.7-.4,25.3-2,37.9-3.3,9.5-1,18.9-3.5,28.4-3.3C178.8,1.58,190.4-1.22,195,5.68Z"/><path class="cls-3" d="M77.9,193.08l-3.3,10.5-43.1-13.1-.7-11.1,47.1,13.7Z"/></g></g></svg>