<svg xmlns="http://www.w3.org/2000/svg" viewBox="0 0 459.75 459.75"><defs><style>.cls-1,.cls-2{fill:none;}.cls-1{stroke:#333;stroke-width:31.35px;}.cls-1,.cls-2,.cls-3,.cls-4{stroke-linecap:round;stroke-linejoin:round;}.cls-2{stroke:#b3b3b3;stroke-width:14.81px;}.cls-3,.cls-4{stroke:#000;stroke-width:2px;}.cls-4{fill:#b3b3b3;}</style></defs><g id="Layer_2" data-name="Layer 2"><g id="Layer_1-2" data-name="Layer 1"><path class="cls-1" d="M100.28,400.58c-2.3-1.8,3.4-12.8,1.2-14.7s-12,5.9-14.2,4,4.4-12.5,2.3-14.5-12.4,5-14.4,2.8,5.4-12.1,3.4-14.3-12.7,4-14.6,1.7,6.3-11.6,4.6-14-13,3-14.7.5,7.2-11.1,5.6-13.6-13.2,1.9-14.7-.6,8.1-10.5,6.7-13.1-13.3.9-14.6-1.8,8.9-9.8,7.7-12.5-13.3-.2-14.4-2.9,9.6-9.1,8.6-11.9-13.3-1.2-14.1-4,10.3-8.3,9.6-11.2-13.2-2.2-13.8-5.1,10.9-7.5,10.4-10.4-12.9-3.3-13.3-6.2,11.5-6.6,11.2-9.5-12.6-4.3-12.8-7.2,12-5.7,11.9-8.6-12.3-5.3-12.2-8.2,12.4-4.7,12.5-7.7-11.8-6.2-11.5-9.1,12.7-3.8,13.1-6.7-11.3-7.1-10.8-10,13-2.7,13.6-5.6-10.7-8-10-10.8,13.1-1.7,14-4.5-10-8.8-9.1-11.6,13.2-.7,14.3-3.4-9.3-9.6-8.1-12.2,13.2.4,14.5-2.3-8.5-10.3-7.2-12.8,13.2,1.4,14.7-1.1-7.7-10.9-6.1-13.4,13,2.4,14.7,0-6.8-11.5-5.1-13.8,12.8,3.4,14.7,1.2-5.9-12-4-14.2,12.5,4.4,14.5,2.3-5-12.4-2.8-14.4,12.1,5.4,14.3,3.4-4-12.7-1.7-14.6,11.6,6.3,14,4.6-3-13-.5-14.7,11.1,7.2,13.6,5.6-1.9-13.2.6-14.7,10.5,8.1,13.1,6.7-.9-13.3,1.8-14.6,9.8,8.9,12.5,7.7.2-13.3,2.9-14.4,9.1,9.6,11.9,8.6,1.2-13.3,4-14.1,8.3,10.3,11.2,9.6,2.2-13.2,5.1-13.8,7.5,10.9,10.4,10.4,3.3-12.9,6.2-13.3,6.6,11.5,9.5,11.2,4.3-12.6,7.2-12.8,5.7,12,8.6,11.9,5.3-12.3,8.2-12.2,4.7,12.4,7.7,12.5,6.2-11.8,9.1-11.5,3.8,12.7,6.7,13.1,7.1-11.3,10-10.8,2.7,13,5.6,13.6,8-10.7,10.8-10,1.7,13.1,4.5,14,8.8-10,11.6-9.1.7,13.2,3.4,14.3,9.6-9.3,12.2-8.1-.4,13.2,2.3,14.5,10.3-8.5,12.8-7.2-1.4,13.2,1.1,14.7,10.9-7.7,13.4-6.1-2.4,13,0,14.7,11.5-6.8,13.8-5.1-3.4,12.8-1.2,14.7,12-5.9,14.2-4-4.4,12.5-2.3,14.5,12.4-5,14.4-2.8-5.4,12.1-3.4,14.3,12.7-4,14.6-1.7-6.3,11.6-4.6,14,13-3,14.7-.5-7.2,11.1-5.6,13.6,13.2-1.9,14.7.6-8.1,10.5-6.7,13.1,13.3-.9,14.6,1.8-8.9,9.8-7.7,12.5,13.3.2,14.4,2.9-9.6,9.1-8.6,11.9,13.3,1.2,14.1,4-10.3,8.3-9.6,11.2,13.2,2.2,13.8,5.1-10.9,7.5-10.4,10.4,12.9,3.3,13.3,6.2-11.5,6.6-11.2,9.5,12.6,4.3,12.8,7.2-12,5.7-11.9,8.6,12.3,5.3,12.2,8.2-12.4,4.7-12.5,7.7,11.8,6.2,11.5,9.1-12.7,3.8-13.1,6.7,11.3,7.1,10.8,10-13,2.7-13.6,5.6,10.7,8,10,10.8-13.1,1.7-14,4.5,10,8.8,9.1,11.6-13.2.7-14.3,3.4,9.3,9.6,8.1,12.2-13.2-.4-14.5,2.3,8.5,10.3,7.2,12.8-13.2-1.4-14.7,1.1,7.7,10.9,6.1,13.4-13-2.4-14.7,0,6.8,11.5,5.1,13.8-12.8-3.4-14.7-1.2,5.9,12,4,14.2-12.5-4.4-14.5-2.3,5,12.4,2.8,14.4-12.1-5.4-14.3-3.4,4,12.7,1.7,14.6-11.6-6.3-14-4.6,3,13,.5,14.7-11.1-7.2-13.6-5.6,1.9,13.2-.6,14.7-10.5-8.1-13.1-6.7.9,13.3-1.8,14.6-9.8-8.9-12.5-7.7-.2,13.3-2.9,14.4-9.1-9.6-11.9-8.6-1.2,13.3-4,14.1-8.3-10.3-11.2-9.6-2.2,13.2-5.1,13.8-7.5-10.9-10.4-10.4-3.3,12.9-6.2,13.3-6.6-11.5-9.5-11.2-4.3,12.6-7.2,12.8-5.7-12-8.6-11.9-5.3,12.3-8.2,12.2-4.7-12.4-7.7-12.5-6.2,11.8-9.1,11.5-3.8-12.7-6.7-13.1-7.1,11.3-10,10.8-2.7-13-5.6-13.6-8,10.7-10.8,10-1.7-13.1-4.5-14-8.8,10-11.6,9.1-.7-13.2-3.4-14.3-9.6,9.3-12.2,8.1.4-13.2-2.3-14.5-10.3,8.5-12.8,7.2,1.4-13.2-1.1-14.7-10.9,7.7-13.4,6.1,2.4-13,0-14.7-11.5,6.9-13.8,5.1Z"/><path class="cls-2" d="M229.88,44.58c102.39,0,185.4,83,185.4,185.4s-83,185.4-185.4,185.4-185.4-83-185.4-185.4S127.48,44.58,229.88,44.58Z"/><path class="cls-3" d="M49.84,211.63l179.1,11.3"/><path class="cls-3" d="M66.94,151.13,231.34,223"/><path class="cls-3" d="M103.64,100.13l130,123.8"/><path class="cls-3" d="M155.64,64.83l79.8,160.8"/><path class="cls-3" d="M216.64,49.43l20,178.3"/><path class="cls-3" d="M279.14,55.73l-42.2,174.4"/><path class="cls-3" d="M335.74,83.13l-99.3,149.5"/><path class="cls-3" d="M379.64,128.13l-144.4,106.5"/><path class="cls-3" d="M405.34,185.5l-172.2,50.7"/><path class="cls-3" d="M410,248.23l-179.1-11.3"/><path class="cls-3" d="M392.84,308.73l-164.4-71.9"/><path class="cls-3" d="M356.14,359.73l-130-123.8"/><path class="cls-3" d="M304.14,395l-79.8-160.8"/><path class="cls-3" d="M243.14,410.43l-20-178.3"/><path class="cls-3" d="M180.64,404.13l42.2-174.4"/><path class="cls-3" d="M124,376.73l99.3-149.5"/><path class="cls-3" d="M80.24,331.73l144.4-106.5"/><path class="cls-3" d="M54.44,274.33l172.2-50.7"/><path class="cls-3" d="M404,279.33l-170.6-55.5"/><path class="cls-3" d="M376.64,335.83l-141.4-110.5"/><path class="cls-3" d="M331.54,379.73l-95-152.2"/><path class="cls-3" d="M274.24,405.43l-37.3-175.5"/><path class="cls-3" d="M211.54,410l25-177.7"/><path class="cls-3" d="M151,392.83l84.3-158.4"/><path class="cls-3" d="M100,356l133.4-120.1"/><path class="cls-3" d="M64.74,304l166.4-67.2"/><path class="cls-3" d="M49.34,243.13l179.4-6.2"/><path class="cls-3" d="M55.74,180.5,226.44,236"/><path class="cls-3" d="M83.14,123.93,224.54,234.5"/><path class="cls-3" d="M128.24,80.13l95.1,152.2"/><path class="cls-3" d="M185.54,54.43l37.3,175.5"/><path class="cls-3" d="M248.24,49.83l-25,177.7"/><path class="cls-3" d="M308.74,67l-84.3,158.4"/><path class="cls-3" d="M359.74,103.83l-133.4,120"/><path class="cls-3" d="M395,155.83,228.61,223"/><path class="cls-3" d="M410.44,216.73,231,222.93"/><path class="cls-4" d="M229.88,213.78a16.2,16.2,0,1,1-16.2,16.2,16.2,16.2,0,0,1,16.2-16.2Z"/></g></g></svg>