<?xml version="1.0" encoding="utf-8"?>
<!-- Generator: Adobe Illustrator 26.0.2, SVG Export Plug-In . SVG Version: 6.00 Build 0)  -->
<svg version="1.1" id="Layer_1" xmlns="http://www.w3.org/2000/svg" xmlns:xlink="http://www.w3.org/1999/xlink" x="0px" y="0px"
	 viewBox="0 0 1213.8 695.2" style="enable-background:new 0 0 1213.8 695.2;" xml:space="preserve">
<style type="text/css">
	.st0{fill:none;stroke:#333333;stroke-width:31.35;stroke-linecap:round;stroke-linejoin:round;}
	.st1{fill:none;stroke:#B3B3B3;stroke-width:14.81;stroke-linecap:round;stroke-linejoin:round;}
	.st2{stroke:#000000;stroke-width:2;stroke-linecap:round;stroke-linejoin:round;}
	.st3{fill:#CCCCCC;stroke:#666666;stroke-width:3.32;stroke-linecap:round;stroke-linejoin:round;}
	.st4{fill:#CCCCCC;stroke:#666666;stroke-width:3.3;stroke-linecap:round;stroke-linejoin:round;}
	.st5{fill:#B3B3B3;stroke:#000000;stroke-width:2;stroke-linecap:round;stroke-linejoin:round;}
	.st6{fill:#CCCCCC;stroke:#666666;stroke-width:2;stroke-linecap:round;stroke-linejoin:round;}
	.st7{fill:#333333;stroke:#666666;stroke-width:2.13;stroke-linecap:round;stroke-linejoin:round;}
	.st8{fill:#333333;stroke:#666666;stroke-width:2;stroke-linecap:round;stroke-linejoin:round;}
	.st9{fill:#000080;stroke:#000000;stroke-width:2;stroke-linecap:round;stroke-linejoin:round;}
	.st10{fill:#4D4D4D;stroke:#000000;stroke-width:2;stroke-linecap:round;stroke-linejoin:round;}
	.st11{fill:#D3BC5F;stroke:#000000;stroke-width:2;stroke-linecap:round;stroke-linejoin:round;}
	.st12{fill:#333333;stroke:#000000;stroke-width:2;stroke-linecap:round;stroke-linejoin:round;}
	.st13{fill:#808080;stroke:#000000;stroke-width:2;stroke-linecap:round;stroke-linejoin:round;}
	.st14{fill:#1A1A1A;stroke:#000000;stroke-width:2;stroke-linecap:round;stroke-linejoin:round;}
	
		.st15{opacity:0.65;fill:none;stroke:#666666;stroke-width:5;stroke-linecap:round;stroke-linejoin:round;enable-background:new    ;}
	.st16{fill:#CCCCCC;stroke:#000000;stroke-width:2;stroke-linecap:round;stroke-linejoin:round;}
	.st17{fill:none;stroke:#000000;stroke-width:3;stroke-linecap:round;stroke-linejoin:round;}
</style>
<g>
	<path class="st0" d="M854.3,636.1c-2.3-1.8,3.4-12.8,1.2-14.7s-12,5.9-14.2,4s4.4-12.5,2.3-14.5s-12.4,5-14.4,2.8
		s5.4-12.1,3.4-14.3s-12.7,4-14.6,1.7s6.3-11.6,4.6-14s-13,3-14.7,0.5s7.2-11.1,5.6-13.6s-13.2,1.9-14.7-0.6s8.1-10.5,6.7-13.1
		s-13.3,0.9-14.6-1.8s8.9-9.8,7.7-12.5s-13.3-0.2-14.4-2.9s9.6-9.1,8.6-11.9s-13.3-1.2-14.1-4s10.3-8.3,9.6-11.2s-13.2-2.2-13.8-5.1
		s10.9-7.5,10.4-10.4s-12.9-3.3-13.3-6.2s11.5-6.6,11.2-9.5s-12.6-4.3-12.8-7.2s12-5.7,11.9-8.6s-12.3-5.3-12.2-8.2
		s12.4-4.7,12.5-7.7s-11.8-6.2-11.5-9.1s12.7-3.8,13.1-6.7s-11.3-7.1-10.8-10s13-2.7,13.6-5.6s-10.7-8-10-10.8s13.1-1.7,14-4.5
		s-10-8.8-9.1-11.6s13.2-0.7,14.3-3.4s-9.3-9.6-8.1-12.2s13.2,0.4,14.5-2.3s-8.5-10.3-7.2-12.8s13.2,1.4,14.7-1.1
		s-7.7-10.9-6.1-13.4s13,2.4,14.7,0s-6.8-11.5-5.1-13.8s12.8,3.4,14.7,1.2s-5.9-12-4-14.2s12.5,4.4,14.5,2.3s-5-12.4-2.8-14.4
		s12.1,5.4,14.3,3.4s-4-12.7-1.7-14.6s11.6,6.3,14,4.6s-3-13-0.5-14.7s11.1,7.2,13.6,5.6s-1.9-13.2,0.6-14.7s10.5,8.1,13.1,6.7
		s-0.9-13.3,1.8-14.6s9.8,8.9,12.5,7.7s0.2-13.3,2.9-14.4s9.1,9.6,11.9,8.6s1.2-13.3,4-14.1s8.3,10.3,11.2,9.6s2.2-13.2,5.1-13.8
		s7.5,10.9,10.4,10.4s3.3-12.9,6.2-13.3s6.6,11.5,9.5,11.2s4.3-12.6,7.2-12.8s5.7,12,8.6,11.9s5.3-12.3,8.2-12.2s4.7,12.4,7.7,12.5
		s6.2-11.8,9.1-11.5s3.8,12.7,6.7,13.1s7.1-11.3,10-10.8c2.9,0.5,2.7,13,5.6,13.6s8-10.7,10.8-10s1.7,13.1,4.5,14s8.8-10,11.6-9.1
		s0.7,13.2,3.4,14.3s9.6-9.3,12.2-8.1s-0.4,13.2,2.3,14.5s10.3-8.5,12.8-7.2s-1.4,13.2,1.1,14.7s10.9-7.7,13.4-6.1s-2.4,13,0,14.7
		s11.5-6.8,13.8-5.1s-3.4,12.8-1.2,14.7s12-5.9,14.2-4s-4.4,12.5-2.3,14.5s12.4-5,14.4-2.8s-5.4,12.1-3.4,14.3s12.7-4,14.6-1.7
		s-6.3,11.6-4.6,14s13-3,14.7-0.5s-7.2,11.1-5.6,13.6s13.2-1.9,14.7,0.6s-8.1,10.5-6.7,13.1s13.3-0.9,14.6,1.8s-8.9,9.8-7.7,12.5
		s13.3,0.2,14.4,2.9s-9.6,9.1-8.6,11.9s13.3,1.2,14.1,4s-10.3,8.3-9.6,11.2s13.2,2.2,13.8,5.1s-10.9,7.5-10.4,10.4
		s12.9,3.3,13.3,6.2s-11.5,6.6-11.2,9.5s12.6,4.3,12.8,7.2s-12,5.7-11.9,8.6s12.3,5.3,12.2,8.2s-12.4,4.7-12.5,7.7
		s11.8,6.2,11.5,9.1s-12.7,3.8-13.1,6.7s11.3,7.1,10.8,10s-13,2.7-13.6,5.6s10.7,8,10,10.8s-13.1,1.7-14,4.5s10,8.8,9.1,11.6
		s-13.2,0.7-14.3,3.4s9.3,9.6,8.1,12.2s-13.2-0.4-14.5,2.3s8.5,10.3,7.2,12.8s-13.2-1.4-14.7,1.1s7.7,10.9,6.1,13.4s-13-2.4-14.7,0
		s6.8,11.5,5.1,13.8s-12.8-3.4-14.7-1.2s5.9,12,4,14.2s-12.5-4.4-14.5-2.3s5,12.4,2.8,14.4s-12.1-5.4-14.3-3.4s4,12.7,1.7,14.6
		s-11.6-6.3-14-4.6s3,13,0.5,14.7s-11.1-7.2-13.6-5.6s1.9,13.2-0.6,14.7s-10.5-8.1-13.1-6.7s0.9,13.3-1.8,14.6s-9.8-8.9-12.5-7.7
		s-0.2,13.3-2.9,14.4s-9.1-9.6-11.9-8.6s-1.2,13.3-4,14.1s-8.3-10.3-11.2-9.6s-2.2,13.2-5.1,13.8s-7.5-10.9-10.4-10.4
		s-3.3,12.9-6.2,13.3s-6.6-11.5-9.5-11.2s-4.3,12.6-7.2,12.8s-5.7-12-8.6-11.9s-5.3,12.3-8.2,12.2s-4.7-12.4-7.7-12.5
		s-6.2,11.8-9.1,11.5s-3.8-12.7-6.7-13.1s-7.1,11.3-10,10.8s-2.7-13-5.6-13.6s-8,10.7-10.8,10s-1.7-13.1-4.5-14s-8.8,10-11.6,9.1
		s-0.7-13.2-3.4-14.3s-9.6,9.3-12.2,8.1s0.4-13.2-2.3-14.5s-10.3,8.5-12.8,7.2s1.4-13.2-1.1-14.7s-10.9,7.7-13.4,6.1s2.4-13,0-14.7
		S856.6,637.9,854.3,636.1L854.3,636.1z"/>
	<path class="st1" d="M983.9,280.1c102.4,0,185.4,83,185.4,185.4s-83,185.4-185.4,185.4s-185.4-83-185.4-185.4
		C798.6,363.1,881.5,280.1,983.9,280.1z"/>
	<path class="st2" d="M803.8,447.1l179.1,11.3"/>
	<path class="st2" d="M820.9,386.6l164.4,71.9"/>
	<path class="st2" d="M857.6,335.6l130,123.8"/>
	<path class="st2" d="M909.6,300.3l79.8,160.8"/>
	<path class="st2" d="M970.6,284.9l20,178.3"/>
	<path class="st2" d="M1033.1,291.2l-42.2,174.4"/>
	<path class="st2" d="M1089.7,318.6l-99.3,149.5"/>
	<path class="st2" d="M1133.6,363.6L989.1,470.1"/>
	<path class="st2" d="M1159.3,421l-172.2,50.7"/>
	<path class="st2" d="M1164,483.7l-179.1-11.3"/>
	<path class="st2" d="M1146.8,544.2l-164.4-71.9"/>
	<path class="st2" d="M1110.1,595.2L980.2,471.4"/>
	<path class="st2" d="M1058.1,630.5l-79.8-160.8"/>
	<path class="st2" d="M997.1,645.9l-20-178.3"/>
	<path class="st2" d="M934.6,639.6l42.2-174.4"/>
	<path class="st2" d="M878,612.2l99.3-149.5"/>
	<path class="st2" d="M834.2,567.2l144.5-106.5"/>
	<path class="st2" d="M808.4,509.8l172.2-50.7"/>
	<path class="st2" d="M1158,514.8l-170.6-55.5"/>
	<path class="st2" d="M1130.6,571.3L989.2,460.8"/>
	<path class="st2" d="M1085.5,615.2l-95-152.2"/>
	<path class="st2" d="M1028.2,640.9l-37.3-175.5"/>
	<path class="st2" d="M965.5,645.5l25-177.7"/>
	<path class="st2" d="M905,628.3l84.3-158.4"/>
	<path class="st2" d="M854,591.5l133.4-120.1"/>
	<path class="st2" d="M818.7,539.5l166.4-67.2"/>
	<path class="st2" d="M803.3,478.6l179.4-6.2"/>
	<path class="st2" d="M809.7,416l170.7,55.5"/>
	<path class="st2" d="M837.1,359.4L978.5,470"/>
	<path class="st2" d="M882.2,315.6l95.1,152.2"/>
	<path class="st2" d="M939.5,289.9l37.3,175.5"/>
	<path class="st2" d="M1002.2,285.3l-25,177.7"/>
	<path class="st2" d="M1062.7,302.5l-84.3,158.4"/>
	<path class="st2" d="M1113.7,339.3l-133.4,120"/>
	<path class="st2" d="M1149,391.3l-166.4,67.2"/>
	<path class="st2" d="M1164.4,452.2L985,458.4"/>
	<path class="st3" d="M947.5,488.9l1-5.3l-4.8-2.3l2-5l-4.3-3.2l2.9-4.5l-3.6-4l3.7-3.8l-2.8-4.6l4.4-3l-1.8-5l4.9-2.1l-0.8-5.3
		l5.2-1.1l0.3-5.3l5.4-0.1l1.3-5.2l5.3,1l2.3-4.8l5,2l3.2-4.3l4.5,2.9l4-3.6l3.8,3.7l4.6-2.8l3,4.4l5-1.8l2.1,4.9l5.3-0.8l1.1,5.2
		l5.3,0.3l0.1,5.4l5.2,1.3l-1,5.3l4.8,2.3l-2,5l4.3,3.2l-2.9,4.5l3.6,4l-3.7,3.8l2.8,4.6l-4.4,3l1.8,5l-4.9,2.1l0.8,5.3l-5.2,1.1
		l-0.3,5.3l-5.4,0.1l-1.3,5.2l-5.3-1l-2.3,4.8l-5-2l-3.2,4.3l-4.5-2.9l-4,3.6l-3.8-3.7l-4.6,2.8l-3-4.4l-5,1.8l-2.1-4.9l-5.3,0.8
		l-1.1-5.2l-5.3-0.3l-0.1-5.4L947.5,488.9z"/>
	<path class="st4" d="M966,492.7l-4.9-0.1l-0.9-4.8l-4.7-1.2l0.2-4.9l-4.3-2.3l1.3-4.7l-3.7-3.2l2.4-4.3l-2.8-4l3.3-3.6l-1.9-4.5
		l4-2.8l-0.8-4.8l4.6-1.8l0.4-4.9l4.8-0.7l1.5-4.7l4.9,0.5l2.5-4.2l4.6,1.6l3.4-3.5l4.1,2.6l4.1-2.6l3.4,3.5l4.6-1.6l2.5,4.2
		l4.9-0.5l1.5,4.6l4.8,0.6l0.4,4.9l4.6,1.7l-0.7,4.8l4,2.8l-1.8,4.5l3.3,3.6l-2.8,4l2.4,4.3l-3.7,3.2l1.3,4.7l-4.3,2.3l0.2,4.9
		l-4.7,1.2l-0.9,4.8l-4.9,0.1l-2,4.4l-4.8-1l-3,3.9l-4.4-2.1l-3.8,3.1l-3.8-3.1l-4.4,2.1l-3-3.9l-4.8,1L966,492.7z"/>
	<path class="st4" d="M977.3,491.7l-4.9,2.3l-1.9-5l-5.3,0.9l-0.5-5.3l-5.3-0.6l1-5.3l-5-2l2.3-4.8l-4.3-3.3l3.6-4l-3.2-4.3l4.5-2.9
		l-1.9-5l5.1-1.6l-0.5-5.3l5.4-0.1l1-5.3l5.2,1.3l2.3-4.8l4.7,2.7l3.6-4l3.8,3.8l4.5-2.9l2.6,4.7l5.1-1.6l1.2,5.2l5.4-0.1l-0.2,5.4
		l5.2,1.3l-1.7,5.1l4.7,2.7l-3,4.5l3.8,3.8l-4.1,3.5l2.6,4.7l-4.9,2.3l1.2,5.2l-5.3,0.9l-0.2,5.4l-5.3-0.6l-1.7,5.1l-5-2l-3,4.5
		l-4.3-3.3l-4.1,3.5L977.3,491.7z"/>
	<path class="st4" d="M970.2,482.2l-4.8-0.6l0.1-4.8l-4.3-2.1l1.7-4.5l-3.4-3.4l3.1-3.7l-2.1-4.3l4.1-2.5l-0.6-4.8l4.7-1.1l1-4.7
		l4.8,0.5l2.4-4.1l4.3,2l3.7-3.1l3.4,3.4l4.5-1.8l2.2,4.3l4.8-0.2l0.7,4.8l4.6,1.4l-0.9,4.7l3.9,2.8l-2.4,4.2l2.8,3.9l-3.6,3.2
		l1.4,4.6l-4.5,1.8l-0.2,4.8l-4.8,0.3l-1.7,4.5l-4.6-1.3l-3.1,3.7l-4-2.7l-4.1,2.5l-2.8-3.9l-4.7,1L970.2,482.2z"/>
</g>
<g>
	<path class="st0" d="M100.3,636.1c-2.3-1.8,3.4-12.8,1.2-14.7s-12,5.9-14.2,4s4.4-12.5,2.3-14.5s-12.4,5-14.4,2.8
		s5.4-12.1,3.4-14.3s-12.7,4-14.6,1.7s6.3-11.6,4.6-14s-13,3-14.7,0.5s7.2-11.1,5.6-13.6s-13.2,1.9-14.7-0.6s8.1-10.5,6.7-13.1
		s-13.3,0.9-14.6-1.8s8.9-9.8,7.7-12.5s-13.3-0.2-14.4-2.9s9.6-9.1,8.6-11.9s-13.3-1.2-14.1-4s10.3-8.3,9.6-11.2s-13.2-2.2-13.8-5.1
		s10.9-7.5,10.4-10.4s-12.9-3.3-13.3-6.2s11.5-6.6,11.2-9.5s-12.6-4.3-12.8-7.2s12-5.7,11.9-8.6s-12.3-5.3-12.2-8.2
		s12.4-4.7,12.5-7.7s-11.8-6.2-11.5-9.1s12.7-3.8,13.1-6.7s-11.3-7.1-10.8-10s13-2.7,13.6-5.6s-10.7-8-10-10.8s13.1-1.7,14-4.5
		s-10-8.8-9.1-11.6s13.2-0.7,14.3-3.4s-9.3-9.6-8.1-12.2s13.2,0.4,14.5-2.3s-8.5-10.3-7.2-12.8s13.2,1.4,14.7-1.1
		s-7.7-10.9-6.1-13.4s13,2.4,14.7,0s-6.8-11.5-5.1-13.8s12.8,3.4,14.7,1.2s-5.9-12-4-14.2s12.5,4.4,14.5,2.3s-5-12.4-2.8-14.4
		s12.1,5.4,14.3,3.4s-4-12.7-1.7-14.6s11.6,6.3,14,4.6s-3-13-0.5-14.7s11.1,7.2,13.6,5.6s-1.9-13.2,0.6-14.7s10.5,8.1,13.1,6.7
		s-0.9-13.3,1.8-14.6s9.8,8.9,12.5,7.7s0.2-13.3,2.9-14.4s9.1,9.6,11.9,8.6s1.2-13.3,4-14.1s8.3,10.3,11.2,9.6s2.2-13.2,5.1-13.8
		s7.5,10.9,10.4,10.4s3.3-12.9,6.2-13.3s6.6,11.5,9.5,11.2s4.3-12.6,7.2-12.8s5.7,12,8.6,11.9s5.3-12.3,8.2-12.2s4.7,12.4,7.7,12.5
		s6.2-11.8,9.1-11.5s3.8,12.7,6.7,13.1c2.9,0.4,7.1-11.3,10-10.8s2.7,13,5.6,13.6s8-10.7,10.8-10s1.7,13.1,4.5,14s8.8-10,11.6-9.1
		s0.7,13.2,3.4,14.3s9.6-9.3,12.2-8.1s-0.4,13.2,2.3,14.5s10.3-8.5,12.8-7.2s-1.4,13.2,1.1,14.7s10.9-7.7,13.4-6.1s-2.4,13,0,14.7
		s11.5-6.8,13.8-5.1s-3.4,12.8-1.2,14.7s12-5.9,14.2-4s-4.4,12.5-2.3,14.5s12.4-5,14.4-2.8s-5.4,12.1-3.4,14.3s12.7-4,14.6-1.7
		s-6.3,11.6-4.6,14s13-3,14.7-0.5s-7.2,11.1-5.6,13.6s13.2-1.9,14.7,0.6s-8.1,10.5-6.7,13.1s13.3-0.9,14.6,1.8s-8.9,9.8-7.7,12.5
		s13.3,0.2,14.4,2.9s-9.6,9.1-8.6,11.9s13.3,1.2,14.1,4s-10.3,8.3-9.6,11.2s13.2,2.2,13.8,5.1s-10.9,7.5-10.4,10.4
		s12.9,3.3,13.3,6.2s-11.5,6.6-11.2,9.5s12.6,4.3,12.8,7.2s-12,5.7-11.9,8.6s12.3,5.3,12.2,8.2s-12.4,4.7-12.5,7.7
		s11.8,6.2,11.5,9.1s-12.7,3.8-13.1,6.7s11.3,7.1,10.8,10s-13,2.7-13.6,5.6s10.7,8,10,10.8s-13.1,1.7-14,4.5s10,8.8,9.1,11.6
		s-13.2,0.7-14.3,3.4s9.3,9.6,8.1,12.2s-13.2-0.4-14.5,2.3s8.5,10.3,7.2,12.8s-13.2-1.4-14.7,1.1s7.7,10.9,6.1,13.4s-13-2.4-14.7,0
		s6.8,11.5,5.1,13.8s-12.8-3.4-14.7-1.2s5.9,12,4,14.2s-12.5-4.4-14.5-2.3s5,12.4,2.8,14.4s-12.1-5.4-14.3-3.4s4,12.7,1.7,14.6
		s-11.6-6.3-14-4.6s3,13,0.5,14.7s-11.1-7.2-13.6-5.6s1.9,13.2-0.6,14.7s-10.5-8.1-13.1-6.7s0.9,13.3-1.8,14.6s-9.8-8.9-12.5-7.7
		s-0.2,13.3-2.9,14.4s-9.1-9.6-11.9-8.6s-1.2,13.3-4,14.1s-8.3-10.3-11.2-9.6s-2.2,13.2-5.1,13.8s-7.5-10.9-10.4-10.4
		s-3.3,12.9-6.2,13.3s-6.6-11.5-9.5-11.2s-4.3,12.6-7.2,12.8s-5.7-12-8.6-11.9s-5.3,12.3-8.2,12.2s-4.7-12.4-7.7-12.5
		s-6.2,11.8-9.1,11.5s-3.8-12.7-6.7-13.1s-7.1,11.3-10,10.8s-2.7-13-5.6-13.6s-8,10.7-10.8,10s-1.7-13.1-4.5-14s-8.8,10-11.6,9.1
		s-0.7-13.2-3.4-14.3s-9.6,9.3-12.2,8.1s0.4-13.2-2.3-14.5s-10.3,8.5-12.8,7.2s1.4-13.2-1.1-14.7s-10.9,7.7-13.4,6.1s2.4-13,0-14.7
		S102.6,637.9,100.3,636.1L100.3,636.1z"/>
	<path class="st1" d="M229.9,280.1c102.4,0,185.4,83,185.4,185.4s-83,185.4-185.4,185.4s-185.4-83-185.4-185.4
		C44.6,363.1,127.5,280.1,229.9,280.1z"/>
	<path class="st2" d="M49.8,447.1l179.1,11.3"/>
	<path class="st2" d="M66.9,386.6l164.4,71.9"/>
	<path class="st2" d="M103.6,335.6l130,123.8"/>
	<path class="st2" d="M155.6,300.3l79.8,160.8"/>
	<path class="st2" d="M216.6,284.9l20,178.3"/>
	<path class="st2" d="M279.1,291.2l-42.2,174.4"/>
	<path class="st2" d="M335.7,318.6l-99.3,149.5"/>
	<path class="st2" d="M379.6,363.6L235.2,470.1"/>
	<path class="st2" d="M405.3,421l-172.2,50.7"/>
	<path class="st2" d="M410,483.7l-179.1-11.3"/>
	<path class="st2" d="M392.8,544.2l-164.4-71.9"/>
	<path class="st2" d="M356.1,595.2l-130-123.8"/>
	<path class="st2" d="M304.1,630.5l-79.8-160.8"/>
	<path class="st2" d="M243.1,645.9l-20-178.3"/>
	<path class="st2" d="M180.6,639.6l42.2-174.4"/>
	<path class="st2" d="M124,612.2l99.3-149.5"/>
	<path class="st2" d="M80.2,567.2l144.4-106.5"/>
	<path class="st2" d="M54.4,509.8l172.2-50.7"/>
	<path class="st2" d="M404,514.8l-170.6-55.5"/>
	<path class="st2" d="M376.6,571.3L235.2,460.8"/>
	<path class="st2" d="M331.5,615.2l-95-152.2"/>
	<path class="st2" d="M274.2,640.9l-37.3-175.5"/>
	<path class="st2" d="M211.5,645.5l25-177.7"/>
	<path class="st2" d="M151,628.3l84.3-158.4"/>
	<path class="st2" d="M100,591.5l133.4-120.1"/>
	<path class="st2" d="M64.7,539.5l166.4-67.2"/>
	<path class="st2" d="M49.3,478.6l179.4-6.2"/>
	<path class="st2" d="M55.7,416l170.7,55.5"/>
	<path class="st2" d="M83.1,359.4L224.5,470"/>
	<path class="st2" d="M128.2,315.6l95.1,152.2"/>
	<path class="st2" d="M185.5,289.9l37.3,175.5"/>
	<path class="st2" d="M248.2,285.3l-25,177.7"/>
	<path class="st2" d="M308.7,302.5l-84.3,158.4"/>
	<path class="st2" d="M359.7,339.3l-133.4,120"/>
	<path class="st2" d="M395,391.3l-166.4,67.2"/>
	<path class="st2" d="M410.4,452.2L231,458.4"/>
	<path class="st5" d="M229.9,449.3c8.9,0,16.2,7.3,16.2,16.2c0,8.9-7.3,16.2-16.2,16.2s-16.2-7.3-16.2-16.2S220.9,449.3,229.9,449.3
		L229.9,449.3z"/>
</g>
<g>
	<path class="st6" d="M671.2,489.1c0,0,34.6-8.5,52.2-9.1c21.2-0.8,42.1,5.8,63.3,6.5c10.6,0.4,31.6-0.9,31.6-0.9s11.3,1.7,11.3,9.7
		s-11.1,10.2-11.1,10.2s-22-0.2-33,0.5c-21,1.4-41.7,7.7-62.8,7.4c-17.5-0.2-52.2-7.8-52.2-7.8L671.2,489.1L671.2,489.1z"/>
	<path class="st7" d="M683.7,492.3c2.8-3.4,7.8-3.9,11.2-1.2s3.9,7.8,1.2,11.2c-2.8,3.4-7.8,3.9-11.2,1.2l0,0
		C681.4,500.7,680.9,495.8,683.7,492.3C683.7,492.4,683.7,492.4,683.7,492.3z"/>
	<path class="st8" d="M817.2,493.3c1.5-1.8,4.2-2,6-0.5l0,0c1.9,1.4,2.3,4.1,0.8,6c-1.5,1.8-4.2,2-6,0.5c-1.9-1.3-2.3-3.9-1-5.8
		C817.1,493.4,817.2,493.4,817.2,493.3z"/>
	<path class="st9" d="M424.3,109.6l-28.8-10.5l-30.1,79.7l30.1,11.8L424.3,109.6z"/>
	<path class="st9" d="M791.6,195.8l-83.9,298.7c0,0-3.8-8.2-7.3-10.6s-12.4-3-12.4-3l79.4-291.7L791.6,195.8z"/>
	<path class="st9" d="M704.4,507.9l4.6-18.5l261.5-26.8l6.5,16.2L704.4,507.9L704.4,507.9z"/>
	<path class="st9" d="M763.5,203.7c0,0,6.8,4,3.3,16.8c-3.1,11.2-12.4,12-12.4,12l-317-79.7l-20.9-16.3c0,0-3.5-5.5-1.9-10.9
		c1.4-4.7,7.1-6.8,7.1-6.8L763.5,203.7z"/>
	<path class="st9" d="M416.1,136.4c0,0-8.7,8.5-11.1,13.9c-3.8,8.6-4.6,27.7-4.6,27.7l27.7,21.3l245,300.8c0,0,0.7-9.6,3.6-13.1
		c2.7-3.3,11.4-5.9,11.4-5.9l3.9-16L438.3,153L416.1,136.4L416.1,136.4z"/>
	<path class="st9" d="M690.1,481.1c9.1,0,16.5,7.4,16.5,16.5s-7.4,16.5-16.5,16.5s-16.5-7.4-16.5-16.5l0,0
		C673.6,488.5,681,481.1,690.1,481.1z"/>
	<path class="st10" d="M790.9,194.5l-21.6-6.2l49-168.3l23.5,2L790.9,194.5z"/>
	<path class="st2" d="M918.4,5.7c1.4,2-0.4,5.1-1.6,7.2c-2.6,4.4-14.6,4.9-21.9,7.2c-7.8,2.4-15.4,5.9-23.5,6.9
		c-5.8,0.7-11.8-0.1-17.6-0.7c-9.5-0.9-18.9-3.2-28.4-4.2c-12-1.3-24.2-2-36.3-2.3c-10.2-0.5-20.5-0.3-30.7,0.3
		c-10.2,0.8-19.9,4.5-30.4,4.6c-1.5,0-3.5-1.1-3.6-2.6c-0.2-4.4,6.2-6.5,10.1-8.5c5.4-2.7,11.7-3.1,17.6-3.9
		c13.3-1.8,26.8-2,40.2-2.3c11.8-0.2,23.5,1.1,35.3,0.7c12.7-0.4,25.3-2,37.9-3.3c9.5-1,18.9-3.5,28.4-3.3
		C902.2,1.6,913.8-1.2,918.4,5.7z"/>
	<path class="st11" d="M356,226.3l-25.8-10.2l-33,83.6l26.2,10.4L356,226.3L356,226.3z"/>
	<path class="st12" d="M395.7,190.9L392,202l-23.1,5.5l-11.1,20.7l-30-11.6l11-30.7l19.9,0.4l5.5-6.5L395.7,190.9L395.7,190.9z"/>
	<path class="st12" d="M330.6,299.5L255.3,488l-42.5-15.2l5.3-11.3l15-1.6L298.7,287L330.6,299.5L330.6,299.5z"/>
	<path class="st11" d="M316.6,31.1l51.3,29.4l-5.9,5.6l-7.8-2l-12.1,9.5l-12.7,1.6l-9.1-9.5l1-5.2l-11.1,4.2L303.3,51L316.6,31.1
		L316.6,31.1z"/>
	<path class="st13" d="M325.2,16.3l-14.8,22.2l23.8,10.2c4.5-0.6,8.4-3.3,10.6-7.2c3.1-5.1,0.7-12.7,0.7-12.7L325.2,16.3L325.2,16.3
		z"/>
	<path class="st14" d="M424.3,108.9l-29.1-9.8l6.2-9.1l2.6-9.1l-69.3-32.3c0,0,7.2-2.3,10.1-7.5c2.4-4.2,0.3-11.8,0.3-11.8
		l67.3,29.4l1.3-2.9c0,0,4.5-1,11.1,1c3.6,1.3,6.8,3.3,9.5,5.9L423.2,98L424.3,108.9L424.3,108.9z"/>
	<path class="st14" d="M317.8,13.5c7.6,0,13.7,6.1,13.7,13.7s-6.1,13.7-13.7,13.7s-13.7-6.1-13.7-13.7
		C304,19.6,310.1,13.5,317.8,13.5C317.7,13.5,317.7,13.5,317.8,13.5z"/>
	<path class="st12" d="M307.1,52.7c0,0-12.2,2.9-17.6,5.9c-4,2.2-10.8,8.5-10.8,8.5l4.9,5.9c0,0,8-5.6,12.4-7.5
		c5.1-2.2,16-4.6,16-4.6L307.1,52.7z"/>
	<path class="st12" d="M935.2,533.8c-0.6-0.6-3.4-0.6-3.8-1.3s1-3.1,0.8-3.9s-2.6-2.2-2.6-3s2.4-2.2,2.6-3s-1.2-3.2-0.8-3.9
		s3.2-0.7,3.8-1.3s0.6-3.4,1.3-3.8s3.1,1,3.9,0.8s2.2-2.6,3-2.6s2.2,2.4,3,2.6s3.2-1.2,3.9-0.8s0.7,3.2,1.3,3.8s3.4,0.6,3.8,1.3
		s-1,3.1-0.8,3.9s2.6,2.2,2.6,3s-2.4,2.2-2.6,3s1.2,3.2,0.8,3.9s-3.2,0.7-3.8,1.3s-0.6,3.4-1.3,3.8s-3.1-1-3.9-0.8s-2.2,2.6-3,2.6
		s-2.2-2.4-3-2.6s-3.2,1.2-3.9,0.8S935.8,534.4,935.2,533.8z"/>
	<path class="st12" d="M990.7,582.8c-0.6-0.6-3.4-0.6-3.8-1.3s1-3.1,0.8-3.9s-2.6-2.2-2.6-3s2.4-2.2,2.6-3s-1.2-3.2-0.8-3.9
		s3.2-0.7,3.8-1.3s0.6-3.4,1.3-3.8s3.1,1,3.9,0.8s2.2-2.6,3-2.6s2.2,2.4,3,2.6s3.2-1.2,3.9-0.8s0.7,3.2,1.3,3.8s3.4,0.6,3.8,1.3
		s-1,3.1-0.8,3.9s2.6,2.2,2.6,3s-2.4,2.2-2.6,3s1.2,3.2,0.8,3.9s-3.2,0.7-3.8,1.3s-0.6,3.4-1.3,3.8s-3.1-1-3.9-0.8s-2.2,2.6-3,2.6
		s-2.2-2.4-3-2.6s-3.2,1.2-3.9,0.8S991.2,583.3,990.7,582.8z"/>
	<path class="st15" d="M691,432.9c-30.3-0.8-63.5,25.3-65,63.8c-1.6,40.7,32.6,62.1,62.5,65c106.9,10.3,203.6,17.2,306.2,25.6
		c5.3,0.4,14.1-2.3,16.2-8.1s-1.5-14-7.7-16c-21.8-7-43.4-10.7-61-23.4c-4.6-3.3-9.7-7.8-10.8-13.2s2.8-10.5,7.2-13.2
		c18.9-11.5,32.1-17.5,51.1-25.5c9.7-4.1,18.6-13.8,18.1-23.8s-10.6-21.8-20.6-21.9C889.7,441.7,801.8,435.8,691,432.9L691,432.9z"
		/>
	<path class="st9" d="M783.7,223.9c0,0-4.7,4-5.7,6.8c-1.1,3.2,0.5,10.2,0.5,10.2l180.4,193.5l18.8,44.7l19.6-1.6V467L972,425.8
		L783.7,223.9L783.7,223.9z"/>
	<path class="st16" d="M976,475.3c0,0,2-9.2,9.8-10.5s11.8,8.2,11.8,8.2l2.3,24.5c0,0-0.4,7.9-7.8,8.5c-8.7,0.6-10.1-5.6-10.1-5.6
		L976,475.3z"/>
	<path class="st16" d="M987.8,592l1.4-24.5c-7-2.8-13.7-6.1-20.3-9.7c-9-5.2-32.8-22.6-32.8-22.6v-17.6c0,0,10.9-11.7,18.9-14.3
		s27.3,0.5,27.3,0.5l-0.5-4.2c0,0-1.3-6.8,4.6-10.2c6.3-3.6,11.5,4.2,11.5,4.2s9.5,19.3,6.5,28.6c-1.4,4.2-44.3,0-44.3,0l-1.8-3.2
		c0,0-8.2,5.6-7.9,9.7c0.8,11.3,14.8,16.5,24.9,23.1s22.7,14.1,35.6,15.2c2.7,0.2,7.9-1.8,7.9-1.8s-6.2,16.7-12,21.2
		C1001,591.1,987.8,592,987.8,592L987.8,592z"/>
	<path class="st5" d="M801.3,193.1l-3.3,10.5l-43.1-13.1l-0.7-11.1L801.3,193.1L801.3,193.1z"/>
	<path class="st17" d="M961.5,524.9c0,0,28.5,4.1,43.4,4.3c17.8,0.3,37.2-5.1,47.1-25.4c5.1-10.5,2.2-26.8-6.2-35.3
		c-20.1-20.4-41.4-5.8-86.7-37.8c-59.4-42-101.9-103.4-144.9-153.6c-19.2-22.5-42.8-46.5-71.8-52c-102.4-19.5-193.7-46.6-284.9-66.9
		c-27.2-6.1-55.7,15.3-83,9.9c-17.6-3.4-37.2-11-47.1-26c-14-21.1-7.5-75.5-7.5-75.5"/>
	<path class="st17" d="M715.8,429.2h2.6c0,0,29.6-86.1,45.5-128.8c4.7-12.6,17.5-24.4,14.9-37.7c-3.2-16-17.7-31.7-34.2-35
		c-108.7-22.2-204.1-56.4-309.2-75.3c-30.6-5.5-70.3,14.2-95.5-5.3c-12.1-9.4-17.7-21.7-14-43.8c2.5-15.2,28.9-35.9,28.9-35.9"/>
	<path class="st4" d="M694.9,432.4l3.9,3l4.5-1.9l3.5,3.5l4.8-1.3l2.9,3.9l4.9-0.6l2.5,4.3h4.9l1.9,4.5l4.9,0.7l1.3,4.8l4.8,1.3
		l0.6,4.9l4.5,1.9v4.9l4.2,2.5l-0.7,4.9l3.9,3.1l-1.3,4.8l3.5,3.5l-1.9,4.5l3,3.9l-2.5,4.2l2.5,4.3l-3,3.9l1.9,4.5l-3.6,3.4l1.3,4.8
		l-3.9,2.9l0.6,4.9l-4.3,2.4v4.9l-4.5,1.8l-0.7,4.9l-4.8,1.3l-1.3,4.8l-4.9,0.6l-1.9,4.4h-4.9l-2.5,4.2l-4.9-0.7l-3,3.9l-4.8-1.3
		l-3.5,3.5l-4.5-1.9l-3.9,3l-4.2-2.5l-4.3,2.5l-3.9-3l-4.6,1.8l-3.5-3.5l-4.7,1.3l-2.9-4l-4.9,0.6l-2.5-4.3H654l-1.9-4.5l-4.9-0.7
		l-1.3-4.8l-4.8-1.3l-0.6-4.9L636,533v-4.9l-4.2-2.5l0.7-4.9l-3.9-3l1.3-4.8l-3.5-3.5l1.9-4.5l-3-3.9l2.5-4.2l-2.5-4.3l3-3.9
		l-1.9-4.5l3.5-3.5l-1.2-4.8l3.9-2.9L632,468l4.3-2.5v-4.9l4.5-1.9l0.7-4.9l4.8-1.3l1.3-4.8l4.9-0.6l1.9-4.5h4.9l2.5-4.2l4.9,0.7
		l3-3.9l4.8,1.3l3.5-3.5l4.5,1.9l3.9-3l4.2,2.5L694.9,432.4z"/>
	<path class="st4" d="M694.8,446.4l3.7,3l4.6-1.6l3.2,3.6l4.7-0.8l2.5,4.1h4.8l1.8,4.5l4.8,0.7l1.1,4.8l4.6,1.6l0.3,4.8l4.2,2.2
		l-0.5,4.8l3.9,2.9l-1.3,4.6l3.3,3.5l-2.1,4.4l2.7,4l-2.7,4l2,4.4l-3.4,3.5l1.2,4.7l-3.9,2.9l0.4,4.8l-4.3,2.2l-0.4,4.8l-4.6,1.4
		l-1.1,4.7l-4.8,0.7l-1.9,4.5l-4.8-0.1l-2.6,4.1l-4.7-0.9l-3.2,3.6l-4.6-1.7l-3.7,3l-4.2-2.4l-4.2,2.4l-3.7-3l-4.6,1.6l-3.2-3.7
		l-4.7,0.8l-2.5-4.1h-4.8l-1.8-4.5l-4.8-0.7l-1.1-4.8l-4.6-1.6l-0.3-4.8l-4.2-2.2l0.5-4.8l-3.9-2.9l1.3-4.6l-3.3-3.5l2.1-4.4l-2.7-4
		l2.7-4l-2-4.4l3.4-3.5l-1.2-4.7l3.9-2.9l-0.4-4.8l4.3-2.2l0.4-4.8l4.6-1.4l1.1-4.7l4.8-0.7l1.9-4.5l4.8,0.1l2.6-4l4.7,0.9l3.2-3.6
		l4.6,1.7l3.7-3l4.2,2.4L694.8,446.4z"/>
	<path class="st4" d="M694.7,459.2l3.5,3.7l4.9-1.8l2.7,4.4l5.1-0.7l1.5,4.9l5.1,0.5l0.4,5.2l4.9,1.6l-0.8,5.1l4.3,2.7l-1.8,4.8
		l3.7,3.6l-2.9,4.2l2.8,4.3l-3.7,3.5l1.8,4.9l-4.4,2.6l0.7,5.1l-4.9,1.5l-0.5,5.1l-5.2,0.4l-1.6,4.9l-5.1-0.8l-2.7,4.3l-4.8-1.8
		l-3.6,3.7l-4.2-2.9l-4.3,2.8l-3.5-3.7l-4.9,1.8l-2.7-4.4l-5.1,0.7l-1.5-4.9l-5.1-0.5l-0.4-5.2l-4.9-1.6l0.8-5.1l-4.3-2.7l1.8-4.8
		l-3.7-3.6l2.9-4.2l-2.8-4.3l3.7-3.5l-1.7-4.9l4.4-2.6l-0.7-5.1l4.9-1.5l0.5-5.1l5.2-0.4l1.6-4.9l5.1,0.8l2.7-4.3l4.8,1.8l3.6-3.7
		l4.2,2.9L694.7,459.2z"/>
	<path class="st8" d="M712.6,474.9c16,16.1-3.4-0.2-3.5,22.5c-0.1,22.7,19.4,6.4,3.3,22.5c-16.1,16,0.2-3.4-22.5-3.5
		s-6.4,19.4-22.5,3.3s3.4,0.2,3.5-22.5s-19.4-6.4-3.3-22.5s-0.2,3.4,22.5,3.5S696.7,458.8,712.6,474.9L712.6,474.9z"/>
	<path class="st6" d="M708.7,505.4c0,0-34.6,8.5-52.3,9.1c-21.2,0.8-42.1-5.8-63.3-6.5c-10.6-0.4-31.6,0.9-31.6,0.9
		s-11.3-1.7-11.3-9.7s11.1-10.2,11.1-10.2s22,0.2,33-0.5c21-1.4,41.7-7.7,62.7-7.4c17.5,0.2,52.2,7.8,52.2,7.8L708.7,505.4
		L708.7,505.4z"/>
	<path class="st7" d="M696.3,502.2c-2.8,3.4-7.8,3.9-11.2,1.2c-3.4-2.8-3.9-7.8-1.2-11.2c2.8-3.4,7.8-3.9,11.2-1.2l0,0
		C698.5,493.9,699,498.8,696.3,502.2z"/>
	<path class="st8" d="M562.7,501.3c-1.5,1.8-4.2,2-6,0.5l0,0c-1.9-1.4-2.3-4.1-0.8-6c1.5-1.8,4.2-2,6-0.5c1.9,1.3,2.3,3.9,1,5.7
		C562.8,501.1,562.7,501.2,562.7,501.3z"/>
</g>
</svg>
