<svg xmlns="http://www.w3.org/2000/svg" xml:space="preserve" id="Layer_1" x="0" y="0" version="1.1"
    viewBox="0 0 617.2 283.7">

    <style>
        .st12,
        .st2,
        .st5,
        .st8 {
            stroke: #000;
            stroke-width: .89
        }

        .st12,
        .st5,
        .st8 {
            fill: none
        }

        .st12,
        .st8 {
            stroke-width: .79;
            stroke-miterlimit: 3.18
        }

        .st12 {
            fill: #0f3a8b
        }

        .st15,
        .st16,
        .st17 {
            fill: #b3b3b3;
            stroke: #000
        }

        .st15 {
            stroke-width: .68;
            stroke-miterlimit: 2.71
        }

        .st16,
        .st17 {
            stroke-miterlimit: 2.22
        }

        .st17 {
            fill: #e9ddaf;
            stroke-miterlimit: 10
        }

        .st18 {
            stroke: #000;
            stroke-width: 1.52;
            stroke-miterlimit: 3.57
        }

        .st32 {
            fill: #1c3460;
            stroke: #000;
            stroke-width: 1.4
        }
    </style>

    <path fill="#4d4d4d" stroke="#000" stroke-width=".9"
        d="m255.8 113.1-14-21.6c-2.4-1.1-4.4 1.9-3.3 4.9l10.3 18.7h-17.2l-15.9-31.9-23.6 36.9 40.8 15.3 21-8.3 1.9-14z" />
    <radialGradient id="SVGID_1_" cx="474.8" cy="2306.7" r="94.9" gradientTransform="matrix(.89 0 0 .45 -124.7 -967.5)"
        gradientUnits="userSpaceOnUse">
        <stop offset="0" stop-color="#e6e6e6" />
        <stop offset="1" stop-color="#b5d1d6" stop-opacity=".9" />
    </radialGradient>
    <path fill="url(#SVGID_1_)" stroke="#000" stroke-width=".9"
        d="M216.9 119.3 370.4 104l12.2-64.4c-.6-3.6-1.7-5.4-7.2-5.4-51.7-3.4-129 18.5-147.2 41.9 0 0-11 9.9-13.1 16.7-2.7 8.4 1.8 26.5 1.8 26.5z"
        opacity=".5" />
    <path d="m48.2 234.1 436.2 5.1 122.3-17.8-25.5-72.6-526.6 12.7-6.4 72.6z" class="st2" />
    <radialGradient id="SVGID_00000092449691597867797680000012415937035956184704_" cx="355.8" cy="2480.5" r="86.9"
        gradientTransform="matrix(.89 0 0 .42 -124.4 -961.3)" gradientUnits="userSpaceOnUse">
        <stop offset="0" stop-color="#e6e6e6" />
        <stop offset="1" stop-color="#e6e6e6" stop-opacity="0" />
    </radialGradient>
    <path fill="url(#SVGID_00000092449691597867797680000012415937035956184704_)" stroke="#000" stroke-width=".9"
        d="M115.6 107.3a1239.4 1239.4 0 0 1 154-69l-119.3 71.2-34.7-2.2z" opacity=".3" />
    <linearGradient id="SVGID_00000051368963131907571200000016660255913350368188_" x1="487.1" x2="489.4" y1="1482.3"
        y2="1230.8" gradientTransform="matrix(.89 0 0 .89 -124.9 -1072.2)" gradientUnits="userSpaceOnUse">
        <stop offset="0" stop-color="#002772" />
        <stop offset=".1" stop-color="#022d7f" />
        <stop offset=".8" stop-color="#1e4999" />
        <stop offset="1" stop-color="#1a4aa6" />
    </linearGradient>
    <path fill="url(#SVGID_00000051368963131907571200000016660255913350368188_)" stroke="#000" stroke-width=".9"
        d="M397.9 16.5c-36.1.2-72.7 2.2-106.8 13.4-36.1 11.8-88 39.4-128 63-21.9 16.1-43.7 12-65.6 14C50.2 122 39.3 137 33.8 152.1c-5.3 1.6-18.2 6.1-19.1 14-.2 1.9 3.8 4.5 3.8 4.5v10.8h10.8c-.4 10.2-6 22.6-18.1 34.5-8.4 8.3-5.9 19.8 4.1 22.8 13.3 2.3 30.8 8.5 38.5 2.9.4-48.2 29.3-74.4 60.1-70.8 32.6 3.8 60.3 9.1 60.9 76.5 103.1.8 205.6-1.5 309.2 2.3 0 0-5.3-77.9 52.5-81.5 64.9-4.1 64.6 62.4 64.6 62.4 4.3.1 7.3-2.4 8.9-6.4l1.9-31.2-4.4-35-8.3-10.2-1.3-8.3c-10.2-34.7-35.2-64.1-52.8-96.1l-.7-11.5s-87.1-15.1-131.2-15.2l-15.3-.1zm23 17.1c25-.5 86.5 10.8 88.7 19.6 1.4 5.6.1 20.8-14.3 29.3-9.4 5.5-87.6 22.4-88.2 5.8-.6-20.6-2.3-40 3.4-52.2.8-1.6 4.6-2.4 10.4-2.5zm-55.7.6c3.4 0 6.8.1 10 .3 5.6 0 6.6 1.8 7.2 5.4l-12.2 64.4-153.5 15.3s-4.4-18.1-1.8-26.5A57.7 57.7 0 0 1 228 76.4c17.1-21.9 86.1-42.5 137.2-42.2z" />
    <path
        d="M394.3 22.7c-5.7 65.5-9.4 132.3-10.1 198.6l89.6.4c9.5-58.9 41.3-60.6 71.9-64.6a220.2 220.2 0 0 0-.9-114.7c-50.6-15.9-99.9-17.9-150.5-19.7z"
        class="st5" />
    <path
        d="M393.3 22.4c-56.8 3.8-108.9-.1-200.4 60.3l-4.4 12.9c-5.9 34.5-11.6 71 2.2 122.7 1.1 3.8 3.9 5.2 5.9 4.5l188.2-1.8c-.9-66.9 3.5-132.8 8.5-198.6z"
        class="st5" />
    <path fill="#154091" stroke="#000" stroke-width=".9"
        d="m97.2 107.3 53.6 2.7 120.3-72.1a1347.3 1347.3 0 0 0-120.8 61.3c-5.2 3.4-15.6 5.7-31.5 6.8l-21.6 1.3z" />
    <path fill="#1a1a1a" stroke="#000" stroke-miterlimit="3.2" stroke-width=".8"
        d="m30.5 180.7-12.1.4c-5.4-1.2-10.4-.2-13.6 3.6-4.6 5.7-6.1 13.8-2.2 18.9 3.9 5.3 19.4 3.1 19.4 3.1 5.1-8 7.3-16.8 8.5-26z" />
    <path d="m4.4 185.7 12.1.4 13-1.3M14.8 206.4l1.8-20.7-1.8 20.7" class="st8" />
    <path fill="#999" stroke="#000" stroke-miterlimit="3.6" stroke-width="1.3"
        d="M173.7 140.6c0 2-2.9 3.6-6.5 3.6s-6.5-1.6-6.6-3.6c0-2 2.9-3.6 6.5-3.6s6.6 1.6 6.6 3.6z" />
    <path d="M393.9 27.5c22.8 3 130.6-.8 122.9 33.8-6.5 47.1-90.4 40.4-127.7 42.3l4.8-76.1z" class="st5" />
    <path fill="#0f3a8b" stroke="#000" stroke-width=".9"
        d="M188.6 124.4H162c-.8-1.3-2-3.6.5-6.8 10-12.5 20.1-17.9 29.7-25.2l-3.6 32z" />
    <path fill="#0f3a8b" stroke="#000" stroke-miterlimit="3.2" stroke-width="1.1"
        d="M231.9 101.4c-1.2 7.1-7.4 11.1-16.9 11.1s-17.7-3.9-17.5-11.1c.3-7.7 12.2-15.4 18.4-15.2 12.5.1 17.7 5.4 16 15.2z" />
    <path
        d="M227.3 89.5c10.5 12.8-12.1 15.3-25.1 19.4M218.8 112c.7 1.9.8 5.3-8.7 8.3 0 0-16 .6-23-1.8-1.1-.3-1.1-2 2.9-4.4 4.2-2.5 6.8-2.7 11.6-2.2l17.2.1z"
        class="st12" />
    <path d="M186.9 118.3c9.3-3.6 21-4.6 32.6-5.7-1.9 4.5-3.5 7.8-13.2 7.1l-19.4-1.4z" class="st12" />
    <path
        d="M473.5 221.2c-4.9-1.8-13.1-39.5 16.7-62.5 25.4-19.6 59.2-21.7 59.2-21.7M71.3 146.7c-3.5 8.8-3.4 15.9 1.5 22.3-27.6 22.4-22.6 37.6-29.3 54.5-7.1 11.1-23.3 6-34.7 8.6"
        class="st5" />
    <path d="M72.4 169s29.1-21.6 69.8-9c38.5 12 45.9 71.1 45.9 71.1l296.3-1.8M175.1 241l309.4.5" class="st5" />
    <path d="M199.4 223c.9 6.1 2.6 10.7 1.3 17.9" class="st5" />
    <path fill="#333" stroke="#000" stroke-width=".9"
        d="M8.9 226.2c13.7-6.8 22.5-5.5 32.9-6.8 2.4 2.3 3.2 5-.5 8.6a47 47 0 0 1-31.5 4.1l-.9-5.9z" />
    <path d="m169.5 98.8 4.6 6.7" class="st5" />
    <path d="M437.3.4 326.5 17.6c0 .1-13.5.1-17.8 3.2-1.6 1.1-1.3 5.7-1.3 5.7l10.8-2.5 8.3-5.7L437.3.4z" class="st2" />
    <radialGradient id="SVGID_00000093863337801532666760000018213363649732962448_" cx="-599" cy="954.6" r="58"
        gradientTransform="matrix(2.01 -.01 .01 1.82 1310.8 -1510.8)" gradientUnits="userSpaceOnUse">
        <stop offset="0" stop-color="#181818" />
        <stop offset="1" stop-color="#4f4949" />
    </radialGradient>
    <path fill="url(#SVGID_00000093863337801532666760000018213363649732962448_)" stroke="#000"
        d="M167.9 231.9a51.3 51.3 0 0 1-102.6 0 51.3 51.3 0 0 1 102.6 0z" />
    <path d="M151.5 231.2a34.9 34.9 0 1 1-69.8 0 34.9 34.9 0 1 1 69.8 0z" class="st15" />
    <path d="M145.2 231.9a28.6 28.6 0 1 1-57.2 0 28.6 28.6 0 1 1 57.2 0z" class="st16" />
    <path d="M122.6 230.9a6.5 6.5 0 1 1-13 0 6.5 6.5 0 1 1 13 0z" class="st17" />
    <path
        d="M124.8 249.7c0 2.6-3.5 4.8-7.7 4.8s-7.7-2.1-7.7-4.8c0-2.6 3.5-4.8 7.7-4.8s7.7 2.2 7.7 4.8zM124.8 212.1c0 2.6-3.5 4.8-7.7 4.8s-7.7-2.1-7.7-4.8c0-2.6 3.5-4.8 7.7-4.8s7.7 2.2 7.7 4.8zM133.8 238.3c-2.6 0-4.8-3.4-4.9-7.6s2-7.8 4.7-7.8c2.6 0 4.8 3.4 4.9 7.6s-2.1 7.8-4.7 7.8zM98.7 239c-2.6 0-4.8-3.4-4.9-7.6s2-7.8 4.7-7.8c2.6 0 4.8 3.4 4.9 7.6s-2 7.7-4.7 7.8z"
        class="st18" />
    <path fill="#fff"
        d="M83.5 165.4a60.3 60.3 0 0 1 54.9-2.3 60 60 0 0 1 27 21c-19.7-11.3-56.3-29.3-88.3-7.5-11 7.7-23.6 32.9-25.9 30.7-2-3.9 17.8-31.8 32.3-41.9z"
        opacity=".1" />
    <path fill="#999" stroke="#000" stroke-width=".7"
        d="M44.4 147.1c.9-4.4 4.9-15.8 25.6-20.8 11.6-2.8 34.3-7.9 33.8-5.1a80 80 0 0 1-9.2 9.2c-3.6 2.8-11 7.8-11 7.8l-14.7 6.5-17.1 8.2c-4.7 1.9-7.1-.4-7.4-5.8z" />
    <path fill="#e6e6e6" stroke="#000" stroke-width=".9"
        d="M38.6 150.1c1.1-5.8 6.5-20.9 33.8-27.5 15.3-3.7 45.3-10.4 44.6-6.8-3.7 4.4-7.8 8.5-12.2 12.2-4.7 3.6-14.4 10.4-14.4 10.4L71 147l-22.5 10.8c-6.3 2.4-9.5-.7-9.9-7.7z"
        opacity=".7" />
    <g opacity=".2">
        <radialGradient id="SVGID_00000174568786337265414080000004824865987164625596_" cx="-204.7" cy="3839.9" r="11.1"
            gradientTransform="matrix(.74 -.29 .14 .36 -312.5 -1304.8)" gradientUnits="userSpaceOnUse">
            <stop offset="0" stop-color="#c8b71c" />
            <stop offset="1" stop-color="#615757" />
        </radialGradient>
        <path fill="url(#SVGID_00000174568786337265414080000004824865987164625596_)"
            d="M83.2 129.6c1 2.5-2.4 6.1-7.5 8s-10 1.6-11-.9 2.4-6.1 7.5-8 10.1-1.5 11 .9z" />
    </g>
    <radialGradient id="SVGID_00000049916647029562588190000009197881847635864995_" cx="-599" cy="952.4" r="58"
        gradientTransform="matrix(2.01 -.01 .01 1.82 1735.9 -1506.9)" gradientUnits="userSpaceOnUse">
        <stop offset="0" stop-color="#181818" />
        <stop offset="1" stop-color="#4f4949" />
    </radialGradient>
    <path fill="url(#SVGID_00000049916647029562588190000009197881847635864995_)" stroke="#000"
        d="M592.9 231.9a51.3 51.3 0 1 1-51.3-51.3 51.3 51.3 0 0 1 51.3 51.3z" />
    <path d="M576.5 231.3a34.9 34.9 0 1 1-69.7 0 34.9 34.9 0 0 1 69.7 0z" class="st15" />
    <path d="M570.2 231.9a28.6 28.6 0 1 1-28.6-28.6 28.6 28.6 0 0 1 28.6 28.6z" class="st16" />
    <path d="M547.6 231a6.5 6.5 0 1 1-13 0 6.5 6.5 0 1 1 13 0z" class="st17" />
    <path
        d="M549.8 249.7c0 2.6-3.5 4.8-7.7 4.8s-7.7-2.1-7.7-4.8 3.5-4.8 7.7-4.8 7.7 2.2 7.7 4.8zM549.8 212.2c0 2.6-3.5 4.8-7.7 4.8s-7.7-2.1-7.7-4.8 3.5-4.8 7.7-4.8 7.7 2.1 7.7 4.8zM558.8 238.4c-2.6 0-4.8-3.4-4.9-7.7s2-7.8 4.7-7.8 4.8 3.4 4.9 7.7-2.1 7.7-4.7 7.8zM523.8 239c-2.6 0-4.8-3.4-4.9-7.7s2-7.8 4.7-7.8 4.8 3.4 4.9 7.7-2.1 7.8-4.7 7.8z"
        class="st18" />
    <linearGradient id="SVGID_00000109748275726178845320000009028470316945430404_" x1="1178.7" x2="1229.6" y1="1445.5"
        y2="1488" gradientTransform="matrix(.79 0 0 .89 -383.6 -1205.4)" gradientUnits="userSpaceOnUse">
        <stop offset="0" stop-color="#333" />
        <stop offset="1" stop-color="#727272" />
    </linearGradient>
    <path fill="url(#SVGID_00000109748275726178845320000009028470316945430404_)" stroke="#000" stroke-width=".9"
        d="M544.8 43.3c5.1 25.5 7.4 51.5 6.8 77.5h38c-7.5-30.8-19.5-58.6-44.8-77.5z" />
    <path fill="none" stroke="#000" stroke-width="1.5" d="m580 100.9 5.5-2.7 5.3 14.9-1.3 1.8" />
    <radialGradient id="SVGID_00000166643522052231614620000005058794282060561558_" cx="50.4" cy="1617.2" r="10.3"
        gradientTransform="matrix(.64 -.4 .81 .96 -779.3 -1459.6)" gradientUnits="userSpaceOnUse">
        <stop offset="0" stop-color="#5a0202" />
        <stop offset=".5" stop-color="#942929" />
        <stop offset="1" stop-color="#050505" />
    </radialGradient>
    <path fill="url(#SVGID_00000166643522052231614620000005058794282060561558_)" stroke="#000" stroke-width="1.4"
        d="M568.2 67.9c4.4 5.2 5.1 11.3 1.4 13.5s-10.2-.2-14.6-5.4-5.1-11.3-1.4-13.5 10.1.1 14.6 5.4z" />
    <path fill="#ccc" stroke="#000" stroke-width="1.3"
        d="M585.4 113.9c-4 4.9-15.1 1.4-21.5-3.4-7.5-5.6-8.3-16.6-4.2-21.5s12.6-3.2 19 3.8 10.9 16.2 6.7 21.1z" />
    <radialGradient id="SVGID_00000085947168901169521860000005059213067578165925_" cx="555.2" cy="1192" r="7.5"
        gradientTransform="matrix(.6 -.6 .88 1.88 -802.3 -1804.1)" gradientUnits="userSpaceOnUse">
        <stop offset="0" stop-color="#d15959" />
        <stop offset="1" stop-color="#ca8181" />
    </radialGradient>
    <path fill="url(#SVGID_00000085947168901169521860000005059213067578165925_)"
        d="M584.2 100.3c4.6 10.4 3.2 11.2.4 14.1s-6.6-.1-10-7.5-6.1-15.8-3.3-18.7 10.5 6.5 12.9 12.1z" />
    <linearGradient id="SVGID_00000122699414523602923380000000754431653576424629_" x1="1133.5" x2="1184.4" y1="1443.3"
        y2="1485.8" gradientTransform="matrix(.81 0 0 .89 -372.4 -1206)" gradientUnits="userSpaceOnUse">
        <stop offset="0" stop-color="#333" />
        <stop offset="1" stop-color="#727272" />
    </linearGradient>
    <path fill="url(#SVGID_00000122699414523602923380000000754431653576424629_)" stroke="#000" stroke-width=".9"
        d="M545 42.8c5.2 25.5 7.6 51.5 7 77.5h39.2c-7.7-30.8-20.1-58.6-46.2-77.5z" opacity=".6" />
    <path d="M376.8 128.3c0 5-5.6 9-12.4 9s-12.4-4-12.4-9 5.6-9 12.4-9 12.4 4 12.4 9z" class="st32" />
    <linearGradient id="SVGID_00000132073586372655087780000014520739185508365709_" x1="358.4" x2="384.6" y1="1188.3"
        y2="1188.3" gradientTransform="translate(-7.3 -1064.2)" gradientUnits="userSpaceOnUse">
        <stop offset="0" stop-color="#0f3886" />
        <stop offset=".5" stop-color="#16408e" />
        <stop offset="1" stop-color="#002c80" />
    </linearGradient>
    <path fill="url(#SVGID_00000132073586372655087780000014520739185508365709_)" stroke="#000" stroke-width="1.1"
        d="M351.6 129.4c0-5.9 5.6-10.7 12.6-10.7 6.7 0 12.2 4.4 12.6 10.1l-25.2.6z" />
    <path d="M532.2 122.5c0 5-5.6 9-12.4 9s-12.4-4-12.4-9 5.6-9 12.4-9 12.4 4.1 12.4 9z" class="st32" />
    <linearGradient id="SVGID_00000173862340770493755100000012064803563660253830_" x1="513.7" x2="540" y1="1182.6"
        y2="1182.6" gradientTransform="translate(-7.3 -1064.2)" gradientUnits="userSpaceOnUse">
        <stop offset="0" stop-color="#0f3886" />
        <stop offset=".5" stop-color="#16408e" />
        <stop offset="1" stop-color="#002c80" />
    </linearGradient>
    <path fill="url(#SVGID_00000173862340770493755100000012064803563660253830_)" stroke="#000" stroke-width="1.1"
        d="M507 123.7c0-5.9 5.6-10.7 12.6-10.7 6.7 0 12.2 4.4 12.6 10.1l-25.2.6z" />
    <linearGradient id="SVGID_00000118361100779989635710000013427593128666863020_" x1="545" x2="586" y1="1189.8"
        y2="1201.4" gradientTransform="translate(-7.3 -1064.2)" gradientUnits="userSpaceOnUse">
        <stop offset="0" stop-color="#002772" />
        <stop offset=".1" stop-color="#022d7f" />
        <stop offset=".8" stop-color="#1e4999" />
        <stop offset="1" stop-color="#1a4aa6" />
    </linearGradient>
    <path fill="url(#SVGID_00000118361100779989635710000013427593128666863020_)" stroke="#000" stroke-width=".9"
        d="m551.5 120.3-3.6 25.7 24.8-1.4c3.5-1.1 5.8-4.4 6.8-9v-15.8l-28 .5z" />
    <path fill="#999" stroke="#000" stroke-width="1.4"
        d="M369.6 142.4a3.4 3.4 0 0 1-3.4 3.2 3.4 3.4 0 0 1-3.5-3.1 3.4 3.4 0 0 1 3.4-3.2 3.2 3.2 0 0 1 3.5 2.9v.2z" />
    <path d="M366.3 139.2v6" class="st5" />
    <linearGradient id="SVGID_00000036215059863046572030000016036968652327072672_" x1="1162.2" x2="1162.5" y1="1516.6"
        y2="1526.2" gradientTransform="matrix(.79 0 0 .79 -584.8 -1029.2)" gradientUnits="userSpaceOnUse">
        <stop offset="0" stop-color="#0f3886" />
        <stop offset=".5" stop-color="#16408e" />
        <stop offset="1" stop-color="#002c80" />
    </linearGradient>
    <path fill="url(#SVGID_00000036215059863046572030000016036968652327072672_)" stroke="#000" stroke-miterlimit="3.2"
        stroke-width=".8" d="m192.4 180.3 284.4-11.2-8.2 9.4-276.5 8.5c-3.3-2-1.7-5.5.3-6.7z" />
    <linearGradient id="SVGID_00000158027739354558478460000014241548360971946121_" x1="1241.3" x2="1241.5" y1="1514.6"
        y2="1524.2" gradientTransform="matrix(.79 0 0 .79 -584.8 -1029.2)" gradientUnits="userSpaceOnUse">
        <stop offset="0" stop-color="#0f3886" />
        <stop offset=".5" stop-color="#16408e" />
        <stop offset="1" stop-color="#002c80" />
    </linearGradient>
    <path fill="url(#SVGID_00000158027739354558478460000014241548360971946121_)" stroke="#000" stroke-miterlimit="3.2"
        stroke-width=".8" d="M396 172.6v7.8" />
    <linearGradient id="SVGID_00000173851497545700350050000004119876202853430181_" x1="1225.8" x2="1226.1" y1="1515"
        y2="1524.6" gradientTransform="matrix(.79 0 0 .79 -584.8 -1029.2)" gradientUnits="userSpaceOnUse">
        <stop offset="0" stop-color="#0f3886" />
        <stop offset=".5" stop-color="#16408e" />
        <stop offset="1" stop-color="#002c80" />
    </linearGradient>
    <path fill="url(#SVGID_00000173851497545700350050000004119876202853430181_)" stroke="#000" stroke-miterlimit="3.2"
        stroke-width=".8" d="m383.6 173 .4 7.7" />
    <path fill="#1a1a1a" stroke="#000" stroke-width=".9"
        d="M607.3 166s2-3.6 6 .3 4 24.7 2.5 27.7c-.6 1.2-4.1 0-4.1 0l-4.4-28z" />
    <path d="m541.6 167.6 5-10.7c25.3 1.1 57.1 3.9 59.4 15.7l5.2 25.9" class="st5" />
    <g>
        <path d="m117.2 105.7 14.2-8.7c4.4-3.8-.6-1.1 9.3-4.3l4.9-.9" class="st5" />
        <path fill="none" stroke="#000" d="M120.9 104.6a105.4 105.4 0 0 1 37-16.6" />
    </g>
    <path fill="#1b4aa1" stroke="#000" stroke-width=".9"
        d="M544.5 31.9s7.7 1 8.8 3.8c2.4 6 3.8 16.9 3.8 16.9a86.5 86.5 0 0 0-12.6-10V31.9z" />
    <radialGradient id="SVGID_00000041288419237607309490000000856149938967865780_" cx="657.4" cy="1967.8" r="58.5"
        gradientTransform="matrix(.89 0 0 .54 -127.2 -992.4)" gradientUnits="userSpaceOnUse">
        <stop offset="0" stop-color="#e6e6e6" />
        <stop offset="1" stop-color="#b5d1d6" stop-opacity=".9" />
    </radialGradient>
    <path fill="url(#SVGID_00000041288419237607309490000000856149938967865780_)" stroke="#000" stroke-width=".9"
        d="M411 36.5c-5.7 12.2-4 31.6-3.4 52.3.5 16.6 78.8-.3 88.2-5.8a28.7 28.7 0 0 0 14.3-29.3c-2.8-10.8-95.2-25.6-99.1-17.2z"
        opacity=".5" />
</svg>