<svg xmlns="http://www.w3.org/2000/svg" viewBox="0 0 121.21 36.32"><g id="Layer_2" data-name="Layer 2"><g id="Layer_1-2" data-name="Layer 1"><path d="M24.77,20.66l2.37,1.62c.87.65,1.3,1.27,1.3,1.86a5,5,0,0,1-1.08,2.46c-.72,1.06-1.45,1.59-2.2,1.59a4.49,4.49,0,0,1-2.08-1c-.12-.08-.46-.3-1-.69s-1-.67-1.3-.86a12,12,0,0,1-7.52,2.59,12.61,12.61,0,0,1-9.42-4A13.1,13.1,0,0,1,0,14.87a14.51,14.51,0,0,1,1.08-5.6A12.9,12.9,0,0,1,4,4.9,13.58,13.58,0,0,1,8.1,2.12a12.1,12.1,0,0,1,4.82-1A12.77,12.77,0,0,1,22.18,5a13.11,13.11,0,0,1,3.92,9.75A14.24,14.24,0,0,1,24.77,20.66Zm-18.4-6a6.91,6.91,0,0,0,2.07,5.2,6.39,6.39,0,0,0,9.24.05,6.86,6.86,0,0,0,2.05-5.22,6.93,6.93,0,0,0-2.07-5.25,6.54,6.54,0,0,0-4.63-2,6.43,6.43,0,0,0-4.61,2A7,7,0,0,0,6.37,14.69Z"/><path d="M37.76,27.76a7.66,7.66,0,0,1-6-2.76,9.88,9.88,0,0,1-2.39-6.71V12a12,12,0,0,1,.05-1.26,3.41,3.41,0,0,1,.31-.94c.34-.65,1.27-1,2.81-1s2.66.46,3,1.37A5.69,5.69,0,0,1,35.68,12v6.3a2.89,2.89,0,0,0,3.11,3.14,3.13,3.13,0,0,0,2.3-.87A3,3,0,0,0,42,18.32V12A9.84,9.84,0,0,1,42,10.71a3,3,0,0,1,.34-1c.31-.63,1.24-.94,2.77-.94s2.44.32,2.78,1a3.36,3.36,0,0,1,.3,1A9.35,9.35,0,0,1,48.28,12V24.73a9.14,9.14,0,0,1-.06,1.21,2.55,2.55,0,0,1-.34.92c-.36.62-1.28.93-2.77.93s-2.37-.29-2.7-.86a2.87,2.87,0,0,1-.36-1.48,3.58,3.58,0,0,1-.65.72,8.89,8.89,0,0,1-1,.79A4.83,4.83,0,0,1,37.76,27.76Z"/><path d="M57.08,5.35a1.53,1.53,0,0,1-1,.73,6,6,0,0,1-1.82.22,5.94,5.94,0,0,1-1.81-.22,1.49,1.49,0,0,1-1-.75,3.17,3.17,0,0,1-.32-1,9.74,9.74,0,0,1-.05-1.24,9.84,9.84,0,0,1,.05-1.24,3.27,3.27,0,0,1,.3-.92c.34-.65,1.28-1,2.81-1s2.43.32,2.74,1a2.78,2.78,0,0,1,.34,1,9.35,9.35,0,0,1,.06,1.24,9.45,9.45,0,0,1-.06,1.24A2.75,2.75,0,0,1,57.08,5.35ZM51.16,12a9.84,9.84,0,0,1,.05-1.24,3.77,3.77,0,0,1,.3-.95c.34-.63,1.28-.94,2.81-.94a3.87,3.87,0,0,1,2.45.61,2,2,0,0,1,.65,1.55c0,.24,0,.59,0,1V24.7a9.45,9.45,0,0,1-.06,1.24,2.81,2.81,0,0,1-.34.95c-.31.63-1.24.94-2.77.94s-2.44-.33-2.78-1a3.84,3.84,0,0,1-.3-.94,9.72,9.72,0,0,1-.05-1.26Z"/><path d="M69.8,21.49H76a4.4,4.4,0,0,1,2.07.36,1.81,1.81,0,0,1,.85,1,6.25,6.25,0,0,1,.21,1.8,6.34,6.34,0,0,1-.21,1.8,1.54,1.54,0,0,1-.76.95,2.92,2.92,0,0,1-1,.32,9.35,9.35,0,0,1-1.24.06h-13a3,3,0,0,1-2.2-.94,3.06,3.06,0,0,1-.94-2.23,3,3,0,0,1,.94-2.21c.62-.62,1.58-1.5,2.88-2.65s2.47-2.19,3.53-3.11l1.73-1.53H63.79c-1.37,0-2.23-.23-2.59-.69a3.31,3.31,0,0,1-.61-2.09,7.54,7.54,0,0,1,.18-1.92,2.67,2.67,0,0,1,.43-.94A1.75,1.75,0,0,1,61.92,9a7.15,7.15,0,0,1,1.87-.18h11.7a3.09,3.09,0,0,1,2.2.9A3,3,0,0,1,78.62,12a3.24,3.24,0,0,1-1.08,2.39Q76.46,15.45,69.8,21.49Z"/><path d="M90.9,21.49h6.15a4.4,4.4,0,0,1,2.07.36,1.78,1.78,0,0,1,.85,1,6.2,6.2,0,0,1,.22,1.8,6.3,6.3,0,0,1-.22,1.8,1.51,1.51,0,0,1-.76.95,2.87,2.87,0,0,1-.95.32,9.45,9.45,0,0,1-1.24.06H84a3,3,0,0,1-2.19-.94,3,3,0,0,1-.94-2.23,3,3,0,0,1,.94-2.21c.62-.62,1.58-1.5,2.88-2.65s2.47-2.19,3.52-3.11,1.64-1.44,1.73-1.53H84.89c-1.37,0-2.24-.23-2.6-.69a3.37,3.37,0,0,1-.61-2.09,7.54,7.54,0,0,1,.18-1.92,2.86,2.86,0,0,1,.43-.94A1.75,1.75,0,0,1,83,9a7.24,7.24,0,0,1,1.88-.18h11.7a3,3,0,0,1,2.19.9A3,3,0,0,1,99.72,12a3.24,3.24,0,0,1-1.08,2.39Q97.56,15.45,90.9,21.49Z"/><path d="M119.09,9.07c1.41.63,2.12,1.38,2.12,2.27a2.71,2.71,0,0,1-.29,1.22,6.4,6.4,0,0,0-.29.62L111.2,34.27q-.28.69-.48,1a2.47,2.47,0,0,1-.63.68,1.73,1.73,0,0,1-1.08.32,5.39,5.39,0,0,1-1.91-.54c-1.42-.62-2.13-1.36-2.13-2.23,0-.57,1.16-3.32,3.46-8.24l-7.16-12.06a4,4,0,0,1-.72-1.77c0-.76.64-1.53,1.94-2.3a4.23,4.23,0,0,1,1.91-.72,2,2,0,0,1,1.11.29,2.13,2.13,0,0,1,.63.59c.14.21.8,1.32,2,3.35s2.33,3.92,3.41,5.67c.12-.38.76-1.87,1.94-4.45l1.89-4.12a3.41,3.41,0,0,1,.41-.61,1.57,1.57,0,0,1,1.32-.61A5.26,5.26,0,0,1,119.09,9.07Z"/></g></g></svg>