<svg xmlns="http://www.w3.org/2000/svg" xmlns:xlink="http://www.w3.org/1999/xlink" viewBox="0 0 962.66 604.76">
  <defs>
    <style>
      .cls-1,
      .cls-2,
      .cls-7,
      .cls-8 {
        fill: #e7eeff;
      }

      .cls-1,
      .cls-10,
      .cls-11,
      .cls-12,
      .cls-2,
      .cls-7,
      .cls-8,
      .cls-9 {
        stroke: #000;
      }

      .cls-1,
      .cls-10,
      .cls-11,
      .cls-2,
      .cls-5,
      .cls-7,
      .cls-8,
      .cls-9 {
        stroke-miterlimit: 5.3;
      }

      .cls-1 {
        stroke-width: 2.52px;
      }

      .cls-1,
      .cls-10,
      .cls-13,
      .cls-14,
      .cls-15,
      .cls-16,
      .cls-17,
      .cls-18,
      .cls-2,
      .cls-3,
      .cls-6,
      .cls-7,
      .cls-8,
      .cls-9 {
        fill-rule: evenodd;
      }

      .cls-2 {
        stroke-width: 2.65px;
      }

      .cls-3 {
        fill-opacity: 0.09;
      }

      .cls-16,
      .cls-4 {
        fill-opacity: 0.04;
      }

      .cls-5 {
        fill: none;
        stroke: #000058;
        stroke-linecap: round;
        stroke-opacity: 0.17;
        stroke-width: 7.68px;
      }

      .cls-6 {
        fill-opacity: 0.12;
      }

      .cls-7 {
        stroke-width: 1.72px;
      }

      .cls-10,
      .cls-8,
      .cls-9 {
        stroke-width: 2.38px;
      }

      .cls-9 {
        fill: url(#linear-gradient);
      }

      .cls-10 {
        fill: url(#linear-gradient-2);
      }

      .cls-11 {
        stroke-width: 1.32px;
        fill: url(#linear-gradient-3);
      }

      .cls-12 {
        stroke-miterlimit: 4.6;
        stroke-width: 1.19px;
        fill: url(#linear-gradient-4);
      }

      .cls-13 {
        fill-opacity: 0.16;
      }

      .cls-14 {
        fill-opacity: 0.19;
      }

      .cls-15 {
        fill-opacity: 0.09;
      }

      .cls-16 {
        fill: #595b5e;
      }

      .cls-17 {
        fill-opacity: 0.06;
      }

      .cls-18 {
        fill-opacity: 0.15;
      }
    </style>
    <linearGradient id="linear-gradient" x1="295.27" y1="325.68" x2="279.59" y2="437.82" gradientTransform="matrix(-1.48, 0, 0, 1.18, 691.13, -126.76)" gradientUnits="userSpaceOnUse">
      <stop offset="0" stop-color="#00002d" stop-opacity="0.63" />
      <stop offset="1" stop-color="#00002d" stop-opacity="0.18" />
      <stop offset="1" stop-color="#00002d" stop-opacity="0" />
    </linearGradient>
    <linearGradient id="linear-gradient-2" x1="434.22" y1="219.62" x2="433.26" y2="244.28" gradientTransform="matrix(-0.93, 0, 0, 1.89, 844.5, -131.6)" xlink:href="#linear-gradient" />
    <linearGradient id="linear-gradient-3" x1="73.88" y1="316.89" x2="53.38" y2="331.86" gradientTransform="matrix(-1.32, 0, 0, 1.32, 733.75, -127.71)" gradientUnits="userSpaceOnUse">
      <stop offset="0" stop-color="#2c0000" />
      <stop offset="1" stop-color="#89777f" />
      <stop offset="1" stop-color="#e7eeff" stop-opacity="0" />
    </linearGradient>
    <linearGradient id="linear-gradient-4" x1="240.92" y1="219.99" x2="213.11" y2="244.18" gradientTransform="matrix(-1.16, 0, 0, 1.41, 742.34, -126.64)" xlink:href="#linear-gradient-3" />
  </defs>
  <g id="Layer_2" data-name="Layer 2">
    <g id="Layer_1-2" data-name="Layer 1">
      <path class="cls-1" d="M525.72,174.93s10,1.15,21.17,3.34,12.2,6.68,17.84,13.35,6.68,8.86,5.53,17.84-2.19,4.49-2.19,4.49,0,1.15,3.34,3.34,7.82,7.82,7.82,7.82-96.79,5.53-102.31,4.49-10-3.34-15.54-5.52-5.52-8.87-7.82-14.51,1.15-15.53,2.18-21.17,6.68-8.86,13.35-13.35,15.54-3.34,15.54-3.34l41.09,3.22Z" />
      <path class="cls-2" d="M755.67,117.5,587.64,2.41,613,7l34.52,18.41,131.21,78.26Z" />
      <path class="cls-3" d="M771,102.54l-2.53,15L653.93,32.91l117,69.63Z" />
      <path class="cls-2" d="M276.89,244.1,3,16.22l11.51-2.3c11.51-2.3,27.62,6.91,27.62,6.91l313,216.37Z" />
      <path class="cls-3" d="M290.59,241.92,318,249.4,29.22,30.38,290.59,241.92Z" />
      <path class="cls-2" d="M642.88,221.08s126.6-119.69,135.81-122,34.52,4.6,34.52,4.6L717.69,231.33l1.15,10.47-33,53.86-52.14,29-13.81,9.2a81.37,81.37,0,0,0-17.15,19.57c-6.9,11.51-31.19,26.47-31.19,26.47l379.8,204.86s8.52,0,1.61,11.51c-8.75,2.76-18.07,6.33-31.07,7.13L477.15,398.32l-78.26-13.81s-188.75,36.83-214.07,39.13-80.56,2.3-92.07,0S62.83,407.53,58.22,396,55,374.5,63.75,359.19c13.81-29,55.93-58,73.19-66.29,8.41-4.6,41-14.27,43.28-14.27s29.92-19.8,46-26.7c18-6.45,35.91-12.43,48.34-12.43,16.11-2.3,221-16.11,271.61-18.42s96.68,0,96.68,0Z" />
      <path class="cls-4" d="M573.36,296.81v-.23c-1-10.24,19.92-20.25,47-22.32s49.84,4.6,50.87,14.84v.23c1,10.25-19.91,20.26-47,22.33s-49.71-4.6-50.87-14.85Z" />
      <path class="cls-5" d="M258.25,393.72c27.39-5,42.35-7.48,42.35-7.48l323.63-72.16" />
      <path class="cls-6" d="M634.82,308.78l4.49-19.33s-20-12.09-28.89-2.42,6.68,14.5,6.68,14.5l17.72,7.25Z" />
      <path class="cls-7" d="M781,117.5a106.79,106.79,0,0,0-11.51,4.61c-4.61,2.3,165.73,80.56,174.93,82.86a56.3,56.3,0,0,0,16.12-2.3L806.31,117.5Z" />
      <path class="cls-8" d="M703.53,267.12s13.35,8.86,17.84,13.35,4.49,13.35,3.34,20S713.54,319.37,703.53,325s-28.89,11.16-28.89,11.16-20,0-26.7-2.18-13.35-8.86-20-16.69-3.34-24.51-2.19-28.89,11.16-15.54,17.84-18.87a33.22,33.22,0,0,1,13.35-3.34l46.61.92Z" />
      <path class="cls-9" d="M261,242.61s-27.74,7.82-36.71,12.2-36.49,21.4-36.49,21.4L225,299.12l47.07-39.83a27.09,27.09,0,0,1-11.16-8.86c-2.08-6.67.11-7.82.11-7.82Zm20,21.17L232.12,305l72.28,46.73s0,4.49,8.86,1.15,12.2-16.69,14.5-37.75a79,79,0,0,0-4.49-36.71s-4.37,2.19-17.72-2.19A101.25,101.25,0,0,1,281,263.78Z" />
      <path class="cls-10" d="M547.12,278.17l-6.1.57v17.84c0,7-.46,14,0,15.19s7-.57,7-.57,1.73-4.83,2.65-8.63a33.27,33.27,0,0,0,.92-7,43.49,43.49,0,0,0-1.26-9.67,27.11,27.11,0,0,0-3.23-7.71ZM526,280l-6.45.58V299c0,7.25-.46,14.5,0,15.65s7.37-.57,7.37-.57,1.84-5.07,2.76-9a35.34,35.34,0,0,0,.92-7.25,43.73,43.73,0,0,0-1.38-10.13A27.09,27.09,0,0,0,526,280ZM503,284.15l-6.79.58v18.41c0,7.25-.46,14.5,0,15.66s7.72-.58,7.72-.58a84,84,0,0,0,2.87-9,35.34,35.34,0,0,0,.92-7.25,43.73,43.73,0,0,0-1.38-10.13,25,25,0,0,0-3.34-7.71Zm-153.53,3.46a7.92,7.92,0,0,0-2.76.69l-5.06,1c-3.34,5.53-.58,12.32-.58,12.32s-1.15,13.92-2.18,21.75-4.38,17.84-4.95,22c4.72,2.42,22.79-2.53,22.79-2.53s5.06-2.65,4.37-5.76c1.15-6.67,1.26-17.6.11-26.58s-1.15-17.72-5.52-21.06a8.88,8.88,0,0,0-6.22-1.84Zm131.32.11-7.13.58v18.41c0,7.25-.46,14.5,0,15.65s8.05-.57,8.05-.57a91.2,91.2,0,0,0,3.11-9,31.45,31.45,0,0,0,1-7.25,40.42,40.42,0,0,0-1.5-10.13,25,25,0,0,0-3.57-7.71Zm-23.59,3-7.37.58v18.76c0,7.36-.57,14.73,0,15.88s8.4-.57,8.4-.57,2.08-5.18,3.23-9.1a25.89,25.89,0,0,0,1-7.36,38.4,38.4,0,0,0-1.61-10.25,30.66,30.66,0,0,0-3.68-7.94Zm-25.09,3.11-8.29.58v19.68c0,7.71-.57,15.53,0,16.68s9.56-.57,9.56-.57a84.72,84.72,0,0,0,3.56-9.55,32.18,32.18,0,0,0,1.15-7.71,36.93,36.93,0,0,0-1.84-10.71,34.25,34.25,0,0,0-4.14-8.4Zm-28.66,3.45-8.28.58v19.68c0,7.71-.58,15.54,0,16.69s9.55-.58,9.55-.58a86,86,0,0,0,3.57-9.55,32.12,32.12,0,0,0,1.15-7.71,36.84,36.84,0,0,0-1.84-10.7,34.43,34.43,0,0,0-4.15-8.41Z" />
      <path class="cls-11" d="M627.69,300.27c.11-11.74,9.09-21.07,20.14-20.95s19.91,9.67,19.79,21.29V301c-.11,11.74-9.09,21.06-20.14,20.94s-19.91-9.66-19.79-21.29Z" />
      <path class="cls-12" d="M476.57,178c9.67,0,17.61,9.55,17.61,21.41s-7.82,21.4-17.61,21.4S459,211.3,459,199.45,466.91,178,476.57,178Z" />
      <path class="cls-13" d="M113.47,407.53c18.41,2.3,48.33,0,80.56-4.6S299.91,375.3,322.93,373s32.22-9.2,23-13.81-41.44,0-41.44,0-43.73,23-75.95,29.93S164.1,402.93,125,402.93,81.24,396,81.24,396A82.66,82.66,0,0,0,113.47,407.53Z" />
      <path class="cls-14" d="M714.23,230.29s-28.77,0-38.32,2.3-15.31,25.32-17.26,6.91-2-16.11-2-16.11l57.54,6.9Z" />
      <path class="cls-15" d="M683.85,207.27c2.76-13.81,67.21-73.65,67.21-73.65L647.48,225.69l61.58,2.3S681.09,221.08,683.85,207.27Z" />
      <path class="cls-16" d="M647.48,228s21.87,6.67,12.66,15.88-31.07,17.38-49.49,17.38-132.35,14-162.27,18.65-72.51,7.94-84,7.94A56.34,56.34,0,0,1,331.45,277c-9.21-6.91-17.84-3.34-40.86-19.34-31.88-15.07-6.91-15.07,25.66-16.8,0,0,52.71-1.38,158.6-8.29S647.48,228,647.48,228Z" />
      <path class="cls-3" d="M601.68,331.57s-2.54,12.43-15,24.86-15,10-32.35,2.53-134.42,15-134.42,15l181.73-42.35Z" />
      <path class="cls-3" d="M925.31,595.36,512.14,388.77l-54.79-10,468,216.6Z" />
      <path class="cls-17" d="M812.64,117.5S947.87,191.28,868,154.33,763.49,117.5,763.49,117.5Z" />
      <path class="cls-18" d="M571.52,216.83l-72.16,2.53s2.53-15,2.53-24.86-10-22.44-10-22.44a67.58,67.58,0,0,1,15,15c7.48,10,2.53,12.43,7.48,22.44s57.2,7.37,57.2,7.37Z" />
      <path class="cls-18" d="M666.47,271.84s15,7.48,17.38,19.91,0,22.44,0,29.92,27.39-4.95,27.39-4.95a326.85,326.85,0,0,1-34.87,12.43c-17.49,5-22.44-2.53-22.44-2.53s15-2.53,19.91-7.48,2.53-10,2.53-27.39-9.9-19.91-9.9-19.91Z" />
    </g>
  </g>
</svg>